<mxfile host="Electron" agent="Mozilla/5.0 (Windows NT 10.0; Win64; x64) AppleWebKit/537.36 (KHTML, like Gecko) draw.io/26.0.7 Chrome/128.0.6613.186 Electron/32.2.5 Safari/537.36" version="26.0.7">
  <diagram name="Page-1" id="h5mNpairQMjndRQDlEjY">
    <mxGraphModel dx="1322" dy="1090" grid="0" gridSize="10" guides="1" tooltips="1" connect="1" arrows="1" fold="1" page="0" pageScale="1" pageWidth="827" pageHeight="1169" math="0" shadow="0">
      <root>
        <mxCell id="0" />
        <mxCell id="1" parent="0" />
        <mxCell id="LXlQttP3euAjqA6qbs8Q-1" value="(A) Employee" style="swimlane;fontStyle=0;childLayout=stackLayout;horizontal=1;startSize=26;horizontalStack=0;resizeParent=1;resizeParentMax=0;resizeLast=0;collapsible=1;marginBottom=0;fillColor=#dae8fc;strokeColor=#6c8ebf;" parent="1" vertex="1">
          <mxGeometry x="1000" y="120" width="240" height="120" as="geometry">
            <mxRectangle x="230" y="140" width="160" height="26" as="alternateBounds" />
          </mxGeometry>
        </mxCell>
        <mxCell id="LXlQttP3euAjqA6qbs8Q-2" value="- name: String&#xa;- yearsOfSeniority: Int&#xa;- EmployeeType: type" style="text;strokeColor=none;fillColor=none;align=left;verticalAlign=top;spacingLeft=4;spacingRight=4;overflow=hidden;rotatable=0;points=[[0,0.5],[1,0.5]];portConstraint=eastwest;" parent="LXlQttP3euAjqA6qbs8Q-1" vertex="1">
          <mxGeometry y="26" width="240" height="94" as="geometry" />
        </mxCell>
        <mxCell id="LXlQttP3euAjqA6qbs8Q-12" style="edgeStyle=orthogonalEdgeStyle;rounded=0;orthogonalLoop=1;jettySize=auto;html=1;entryX=0.5;entryY=1;entryDx=0;entryDy=0;entryPerimeter=0;endArrow=block;endFill=0;endSize=18;" parent="1" target="LXlQttP3euAjqA6qbs8Q-2" edge="1">
          <mxGeometry relative="1" as="geometry">
            <mxPoint x="1120" y="360" as="sourcePoint" />
          </mxGeometry>
        </mxCell>
        <mxCell id="Eb036PwhEfD1nn25ARw--8" style="edgeStyle=orthogonalEdgeStyle;rounded=0;orthogonalLoop=1;jettySize=auto;html=1;exitX=0.5;exitY=0;exitDx=0;exitDy=0;endArrow=none;startFill=0;" parent="1" edge="1">
          <mxGeometry relative="1" as="geometry">
            <mxPoint x="1120" y="280" as="targetPoint" />
            <mxPoint x="827" y="360" as="sourcePoint" />
            <Array as="points">
              <mxPoint x="827" y="280" />
            </Array>
          </mxGeometry>
        </mxCell>
        <mxCell id="RTc_lFX73izQSRYrJTdz-1" style="edgeStyle=orthogonalEdgeStyle;rounded=0;orthogonalLoop=1;jettySize=auto;html=1;exitX=0.5;exitY=0;exitDx=0;exitDy=0;endArrow=none;startFill=0;" parent="1" source="Eb036PwhEfD1nn25ARw--10" edge="1">
          <mxGeometry relative="1" as="geometry">
            <mxPoint x="1400" y="280" as="targetPoint" />
            <Array as="points">
              <mxPoint x="1680" y="280" />
            </Array>
          </mxGeometry>
        </mxCell>
        <mxCell id="Eb036PwhEfD1nn25ARw--10" value="(C) ProjectSupervisor" style="swimlane;fontStyle=0;childLayout=stackLayout;horizontal=1;startSize=26;horizontalStack=0;resizeParent=1;resizeParentMax=0;resizeLast=0;collapsible=1;marginBottom=0;fillColor=#99CCFF;strokeColor=#82b366;" parent="1" vertex="1">
          <mxGeometry x="1560" y="359" width="240" height="80" as="geometry" />
        </mxCell>
        <mxCell id="Eb036PwhEfD1nn25ARw--11" value="&#xa;- Team: Employee[ ]" style="text;strokeColor=none;fillColor=none;align=left;verticalAlign=top;spacingLeft=4;spacingRight=4;overflow=hidden;rotatable=0;points=[[0,0.5],[1,0.5]];portConstraint=eastwest;" parent="Eb036PwhEfD1nn25ARw--10" vertex="1">
          <mxGeometry y="26" width="240" height="54" as="geometry" />
        </mxCell>
        <mxCell id="uUasVCdfSqrgoqEBHZgv-1" value="(I) Votable" style="swimlane;fontStyle=0;childLayout=stackLayout;horizontal=1;startSize=26;horizontalStack=0;resizeParent=1;resizeParentMax=0;resizeLast=0;collapsible=1;marginBottom=0;fillColor=#CCFFCC;strokeColor=#6c8ebf;" parent="1" vertex="1">
          <mxGeometry x="840" y="-40" width="160" height="80" as="geometry">
            <mxRectangle x="230" y="140" width="160" height="26" as="alternateBounds" />
          </mxGeometry>
        </mxCell>
        <mxCell id="uUasVCdfSqrgoqEBHZgv-2" value="+getVoteScore(): int" style="text;strokeColor=none;fillColor=none;align=left;verticalAlign=top;spacingLeft=4;spacingRight=4;overflow=hidden;rotatable=0;points=[[0,0.5],[1,0.5]];portConstraint=eastwest;" parent="uUasVCdfSqrgoqEBHZgv-1" vertex="1">
          <mxGeometry y="26" width="160" height="54" as="geometry" />
        </mxCell>
        <mxCell id="uUasVCdfSqrgoqEBHZgv-8" value="(C) RegularEmployee" style="swimlane;fontStyle=0;childLayout=stackLayout;horizontal=1;startSize=26;horizontalStack=0;resizeParent=1;resizeParentMax=0;resizeLast=0;collapsible=1;marginBottom=0;fillColor=#99CCFF;strokeColor=#82b366;" parent="1" vertex="1">
          <mxGeometry x="720" y="360" width="240" height="61" as="geometry" />
        </mxCell>
        <mxCell id="uUasVCdfSqrgoqEBHZgv-10" value="(C) UnionMember" style="swimlane;fontStyle=0;childLayout=stackLayout;horizontal=1;startSize=26;horizontalStack=0;resizeParent=1;resizeParentMax=0;resizeLast=0;collapsible=1;marginBottom=0;fillColor=#99CCFF;strokeColor=#82b366;" parent="1" vertex="1">
          <mxGeometry x="1001" y="360" width="240" height="56" as="geometry" />
        </mxCell>
        <mxCell id="uUasVCdfSqrgoqEBHZgv-30" value="&amp;nbsp;-yearsAsUnionMember: Int" style="text;html=1;align=left;verticalAlign=middle;resizable=0;points=[];autosize=1;strokeColor=none;fillColor=none;" parent="uUasVCdfSqrgoqEBHZgv-10" vertex="1">
          <mxGeometry y="26" width="240" height="30" as="geometry" />
        </mxCell>
        <mxCell id="uUasVCdfSqrgoqEBHZgv-26" style="edgeStyle=orthogonalEdgeStyle;rounded=0;orthogonalLoop=1;jettySize=auto;html=1;exitX=0.5;exitY=0;exitDx=0;exitDy=0;endArrow=none;startFill=0;" parent="1" source="uUasVCdfSqrgoqEBHZgv-13" edge="1">
          <mxGeometry relative="1" as="geometry">
            <mxPoint x="1120" y="280" as="targetPoint" />
            <Array as="points">
              <mxPoint x="1400" y="280" />
            </Array>
          </mxGeometry>
        </mxCell>
        <mxCell id="uUasVCdfSqrgoqEBHZgv-13" value="(C) Technician" style="swimlane;fontStyle=0;childLayout=stackLayout;horizontal=1;startSize=26;horizontalStack=0;resizeParent=1;resizeParentMax=0;resizeLast=0;collapsible=1;marginBottom=0;fillColor=#99CCFF;strokeColor=#82b366;" parent="1" vertex="1">
          <mxGeometry x="1280" y="360" width="240" height="80" as="geometry" />
        </mxCell>
        <mxCell id="uUasVCdfSqrgoqEBHZgv-14" value="-numComputers: Int" style="text;strokeColor=none;fillColor=none;align=left;verticalAlign=top;spacingLeft=4;spacingRight=4;overflow=hidden;rotatable=0;points=[[0,0.5],[1,0.5]];portConstraint=eastwest;" parent="uUasVCdfSqrgoqEBHZgv-13" vertex="1">
          <mxGeometry y="26" width="240" height="54" as="geometry" />
        </mxCell>
        <mxCell id="uUasVCdfSqrgoqEBHZgv-18" value="(I) Salaried" style="swimlane;fontStyle=0;childLayout=stackLayout;horizontal=1;startSize=26;horizontalStack=0;resizeParent=1;resizeParentMax=0;resizeLast=0;collapsible=1;marginBottom=0;fillColor=#CCFFCC;strokeColor=#6c8ebf;" parent="1" vertex="1">
          <mxGeometry x="1240" y="-40" width="160" height="80" as="geometry">
            <mxRectangle x="230" y="140" width="160" height="26" as="alternateBounds" />
          </mxGeometry>
        </mxCell>
        <mxCell id="uUasVCdfSqrgoqEBHZgv-19" value="+calculateSalary(): int" style="text;strokeColor=none;fillColor=none;align=left;verticalAlign=top;spacingLeft=4;spacingRight=4;overflow=hidden;rotatable=0;points=[[0,0.5],[1,0.5]];portConstraint=eastwest;labelBackgroundColor=default;" parent="uUasVCdfSqrgoqEBHZgv-18" vertex="1">
          <mxGeometry y="26" width="160" height="54" as="geometry" />
        </mxCell>
        <mxCell id="uUasVCdfSqrgoqEBHZgv-20" value="(Exception) BonusNotEligibleException" style="swimlane;fontStyle=0;childLayout=stackLayout;horizontal=1;startSize=26;horizontalStack=0;resizeParent=1;resizeParentMax=0;resizeLast=0;collapsible=1;marginBottom=0;fillColor=#ffe6cc;strokeColor=#d79b00;" parent="1" vertex="1">
          <mxGeometry x="520" width="240" height="80" as="geometry">
            <mxRectangle x="230" y="140" width="160" height="26" as="alternateBounds" />
          </mxGeometry>
        </mxCell>
        <mxCell id="uUasVCdfSqrgoqEBHZgv-28" style="edgeStyle=orthogonalEdgeStyle;rounded=0;orthogonalLoop=1;jettySize=auto;html=1;entryX=0.508;entryY=1.004;entryDx=0;entryDy=0;entryPerimeter=0;dashed=1;dashPattern=12 12;endArrow=classic;endFill=1;startSize=6;endSize=20;" parent="1" source="LXlQttP3euAjqA6qbs8Q-1" target="uUasVCdfSqrgoqEBHZgv-2" edge="1">
          <mxGeometry relative="1" as="geometry" />
        </mxCell>
        <mxCell id="uUasVCdfSqrgoqEBHZgv-29" style="edgeStyle=orthogonalEdgeStyle;rounded=0;orthogonalLoop=1;jettySize=auto;html=1;entryX=0.51;entryY=0.988;entryDx=0;entryDy=0;entryPerimeter=0;dashed=1;dashPattern=12 12;endArrow=classic;endFill=1;endSize=20;" parent="1" source="LXlQttP3euAjqA6qbs8Q-1" target="uUasVCdfSqrgoqEBHZgv-19" edge="1">
          <mxGeometry relative="1" as="geometry" />
        </mxCell>
        <mxCell id="RTc_lFX73izQSRYrJTdz-9" style="edgeStyle=orthogonalEdgeStyle;rounded=0;orthogonalLoop=1;jettySize=auto;html=1;entryX=0.5;entryY=1;entryDx=0;entryDy=0;endArrow=none;startFill=0;" parent="1" source="uUasVCdfSqrgoqEBHZgv-31" target="uUasVCdfSqrgoqEBHZgv-20" edge="1">
          <mxGeometry relative="1" as="geometry" />
        </mxCell>
        <mxCell id="uUasVCdfSqrgoqEBHZgv-31" value="(C) Company" style="swimlane;fontStyle=0;childLayout=stackLayout;horizontal=1;startSize=26;horizontalStack=0;resizeParent=1;resizeParentMax=0;resizeLast=0;collapsible=1;marginBottom=0;fillColor=#99CCFF;strokeColor=#82b366;" parent="1" vertex="1">
          <mxGeometry x="520" y="129" width="240" height="126" as="geometry" />
        </mxCell>
        <mxCell id="RTc_lFX73izQSRYrJTdz-7" value="&lt;div&gt;-employees: Employee[ ]&lt;/div&gt;&lt;div&gt;&lt;br&gt;&lt;/div&gt;+addEmployee&lt;div&gt;+getTotalMonthlySalary&lt;/div&gt;&lt;div&gt;+isCompanyRenameAccepted&lt;/div&gt;&lt;div&gt;+isEligibleForBonus&lt;/div&gt;" style="text;html=1;align=left;verticalAlign=middle;resizable=0;points=[];autosize=1;strokeColor=none;fillColor=none;" parent="uUasVCdfSqrgoqEBHZgv-31" vertex="1">
          <mxGeometry y="26" width="240" height="100" as="geometry" />
        </mxCell>
        <mxCell id="RTc_lFX73izQSRYrJTdz-8" style="edgeStyle=orthogonalEdgeStyle;rounded=0;orthogonalLoop=1;jettySize=auto;html=1;entryX=0.496;entryY=1;entryDx=0;entryDy=0;entryPerimeter=0;endArrow=none;startFill=0;" parent="1" source="LXlQttP3euAjqA6qbs8Q-1" edge="1">
          <mxGeometry relative="1" as="geometry">
            <mxPoint x="1120.04" y="-80" as="targetPoint" />
          </mxGeometry>
        </mxCell>
        <mxCell id="RTc_lFX73izQSRYrJTdz-11" value="(ENUM) EmployeeType" style="swimlane;fontStyle=0;childLayout=stackLayout;horizontal=1;startSize=26;horizontalStack=0;resizeParent=1;resizeParentMax=0;resizeLast=0;collapsible=1;marginBottom=0;fillColor=#CC99FF;strokeColor=#6c8ebf;" parent="1" vertex="1">
          <mxGeometry x="1001" y="-200" width="240" height="120" as="geometry">
            <mxRectangle x="230" y="140" width="160" height="26" as="alternateBounds" />
          </mxGeometry>
        </mxCell>
        <mxCell id="RTc_lFX73izQSRYrJTdz-12" value="= REGULAR, &#xa;= UNION, &#xa;= TECHNICIAN,&#xa;= SUPERVISOR" style="text;strokeColor=none;fillColor=none;align=left;verticalAlign=top;spacingLeft=4;spacingRight=4;overflow=hidden;rotatable=0;points=[[0,0.5],[1,0.5]];portConstraint=eastwest;" parent="RTc_lFX73izQSRYrJTdz-11" vertex="1">
          <mxGeometry y="26" width="240" height="94" as="geometry" />
        </mxCell>
        <mxCell id="phAX-SJPCVNB1UN9vK63-1" style="edgeStyle=orthogonalEdgeStyle;rounded=0;orthogonalLoop=1;jettySize=auto;html=1;entryX=1.003;entryY=0.389;entryDx=0;entryDy=0;endArrow=diamond;endFill=1;endSize=40;exitX=0;exitY=0.5;exitDx=0;exitDy=0;entryPerimeter=0;" edge="1" parent="1" source="LXlQttP3euAjqA6qbs8Q-2" target="RTc_lFX73izQSRYrJTdz-7">
          <mxGeometry relative="1" as="geometry">
            <mxPoint x="561" y="192.57" as="sourcePoint" />
            <mxPoint x="801" y="192.57" as="targetPoint" />
          </mxGeometry>
        </mxCell>
        <mxCell id="phAX-SJPCVNB1UN9vK63-4" style="edgeStyle=orthogonalEdgeStyle;rounded=0;orthogonalLoop=1;jettySize=auto;html=1;entryX=1;entryY=0.5;entryDx=0;entryDy=0;endArrow=none;endFill=1;strokeWidth=1;endSize=40;startFill=1;startArrow=diamond;startSize=40;" edge="1" parent="1">
          <mxGeometry relative="1" as="geometry">
            <Array as="points">
              <mxPoint x="1720" y="193" />
            </Array>
            <mxPoint x="1720" y="359" as="sourcePoint" />
            <mxPoint x="1240" y="193" as="targetPoint" />
          </mxGeometry>
        </mxCell>
        <mxCell id="phAX-SJPCVNB1UN9vK63-6" value="" style="shape=image;verticalLabelPosition=bottom;labelBackgroundColor=default;verticalAlign=top;aspect=fixed;imageAspect=0;image=data:image/png,iVBORw0KGgoAAAANSUhEUgAAAXcAAAGpCAYAAAB29HahAAAAAXNSR0IArs4c6QAAAARnQU1BAACxjwv8YQUAAAAJcEhZcwAAFxEAABcRAcom8z8AALV0SURBVHhe7b0FmF1HkufrfTPf7s6+ebvbu/PewE5Pz0z3TNO03e1uu80ok0ySLFnMFjMzMzMzY4mZmVmlEqvEzIyOl784lapTV7fkK1uW7lXF//uibp08mXnynHvPPyMjIyOf+/bbb8VgMBgMiQ24PCxG7gaDwfAMICHI/c6dO3L+/Hk5d+5clpcbN26kPRWDwWDIHHFP7rdu3ZJt27bJ1KlTTZysXLlSO7p4+54MBkN8IUzsSNyR+7Fjx2TmzJmyb98+OX78uBw9ejRLCs/h8OHDsnz5clm6dKlcvnw57QkZDAbDg4h7cj906JCSOyaJq1evKqk9brly5YrWfe3atfvCMenR8j8tuX79uuzfv18WLFggJ0+eTHtCBoPB8CAShtzPnj2rZHvp0qXHJtQHkQf1XpSLFy/IhYvn9VPPXw2fj17HkxQ6HMh90aJFcurUqbQnZDAYDA8iS5I7WjCkDaHv37dP5sxZJIMHjZRuXXtJx45d9XPQwBEyd85CNQdR5urVa1ousq4nKUbuBoMhVmQ5cg/MG9e03okTJkvjBq2lYpkmUq5ESylfoq2Tdk7a6HHF0o2lkTs/ccIkSU09pB3C0yR4I3eDwRArshS5Bxr7VUlO3iEd2nWVMiXqSY0KvaRn2wUybtAumT3ulMxPOq+f4wfvkp7tFkqtir2kTMl60rFdN9m+PVkJ9mkRvJG7wWCIFVmK3CHHlJRd0rSx08xLNpUe7RfI9NFHZdGUy7J0+nVZPPXKfVk2IzieMeao9Gi3QMqXbCYtmraVHckpaQQf/RqRQkfwuDoEI3eDwRArsgy5U/b4seNqT6/wTTMZ1H2tzJ14RmaPPyW92y+S0kVbSIWSbe/LN4WbOs19gcxLOufynJZB3VZL+W+aSq+efdU18erVwJMm2rW8QMYXL16UM2fO6Ge0PI8iRu4GgyFWZAlyh4SRObPnSoUy9aR727kya9wJJfbZ409KGUfszz33nPzlX/5n+a//5b/pJ8elCjdx2vtlzTtr7Anp2nqOVCxbX+bOm6/1Pqw9nEP69esnxYoVkzVr1sjt27ej5o1VjNwNBkOsyBLkTrljx45Kxw5dpW61XpI07IAS9syxx1UGdF3pCL65/OJffqekzmf5Eq2lX+flMsdp7TPGHNP8U0akSo2KXVT7P3Lk8EPbc+/ePVm4cKG8/vrr8ld/9VcycOBAvZ8fYp4xcjcYDLHimSd3r7WvX7dB6tZuJV1bzXRkHZA6pI0snHLJEf4+efeNXEru77yeU6aOPCgLJl9Qm3yQ77gSfKcW06RurZayYcPG+3VHXpPFRphuypYtKxUqVJDPP/9c6tatq+nft4NCjNwNBkOsyDLkPmvmbKlasZUM7bneEfuJ+8SOzJ14Vkb33y5vvfqFkvubr3wu4wftlDkTAq3dC+WG9doo5Uo1lnnzFtyvP3w92giJDxkyRL7++mvZvn271K5dWwoWLKghBDgXzv8oYuRuMBhiRRYhd6eZT0ySymVbytgBKaqBh0kbch/Vb1sGch83MCUquU8csldKFa0v06fNcPVfzEDu/E/Uxo0bN8o333wjnTp10nto3bq15MiRQ4meQGjh9j2KGLkbDIZYkWXIfeLEiUru+LPPGncyA2k/CrlPGrZfvilaT6ZNnebqz0juLHLCMwYyf/vtt6VLly5qd69YsaK89dZbGvTr7t279/M/qhi5GwyGWJFFyP2yhsutWqGVjHQkHmmWmT/pvCP9nfL2azmU3N969UtJGrpX5iWdzZCPcmMG7JCyJRvKrFmzXf3p5M4n5Avx5s6dWz777DOpWrWq1KpVS/LkySO///3vtQ1MtEa2MVYxcjcYDLEiy5D7kiVLpE7NVtKv81JH1MdlppN00g48Zl57ObuS+2svfSKDu691547qOZ9v1tiTWr5G1WZOC1/h6g3q5zoQ7549e6RevXpSunRpmT17tqxdu1bWrVsnkyZNUs0dTf6HTKoauRsMhljxzJM7cuXKZdm9e5e0aN5W2jQeLdNGHVHSRhPHRNOw+mD5l3/6jfzVf/1rJff/9ld/LT/76a+kftUBsmDSBUfsgXcNHULz+sOlVcsOWp9vj/+knRD7+PHjNQ3BVAMRlypVSpo3b66hi4OgZdHb+jAxcjcYDLEii5D7FSXVYUOHSdUKzWVUv61K6giLmKpX6CZ/97c/k3/4u3+Rf/j7f9XPv/v/fiZVy3aRhVMuKrHPGndKRvbbIpXLNZNRI0e79px5oD1HjhyRnTt3KvFyzo8aELR6IkxeuHDhvrb/qGLkbjAYYkWWIHfI9MoVAoZtlzq160vTuoNl6sgj9ydWp448JBOG7paJQ/felwlDdsuUkQdVa5/t8k0ddVga1x4gDRs2k+3J2+6T94PXiR6WgPTv234vRu4GgyFWZAlyRzzpzpkzW8qWriTtm413pH5YI0CqEIrAa/Oq0QdpHEP+7Vz+CuWry9y5TKSmm2KepBi5GwyGWJFlyB2BHAngNX78OClXtoo0rTdQRvTZKFNGuGuMdRq6I3PcH/nkGFIf0XejNK0/UCpWqC4TJoyT8+eD7f6i1f9ji5G7wWCIFVmK3BFPzPPmz1PPlhpVmknrxkOld6fZMrD7So0WyWcfd9yq8RB3vrnUr9/QaexztGN4WsSOGLkbDIZYkeXIHaEeXBKZ5Bw1aoR07NBRmjZuK7VrtJDqlZu7z5Ya871Dhw4ycuRw2bVrl3q4PA1TTFiM3A0GQ6zIkuTuBcJGUlNTZe3a1TJ//lyZPXuGfq5Zs1rTOf9D4sE8TjFyNxgMsSJLkzvCJCukSUwY4r544Zj0aJ4vT0uM3A0GQ6xICHJntSfEfufOnQwEnNWEuDT40i9evNjI3WAwPBRxT+6HDx+W4cOHy/Tp02XKlCkyefLkLCvEpiGUwYwZM3QkYzAYDJkh7skdzX3MmDEaUXHFihWybNmyLCsrV66U+fPn60iG6JMGg8GQGRKC3M0sE4iZZQwGQ6xICHL/MSdUE0lsQtVgMMQKI/cEEiN3g8EQKxKG3Inq6F0Ts6rgc3/gwAEjd4PB8J1ICHLHOwQyY/n/+fPns6ygve/du9fI3WAwfCfintxxhRw2bJhMmzYty7tC8gxwhfRmKoPBYMgMcU/uaO5JSUmSkpIiu3fv1jgvWVXQ2tevX6/ukKdPn057QgaDwfAgEoLczeYeiNncDQZDrEgYcn+a3jJcF4FgI8+Rltm58PlwHj69cPyw8mExbxmDwRArjNx/ZPFtZkKUCWFP6vzv8/B/LPdm5G4wGGKFkft3CES8du1aWbVqlS75D7eB/7F9ExohOTn5Ae0bMj548KDMmTNHJ0TZPJsy5N28ebPWx4bZhFWIVj5SjNwNBkOsyBLkDmlir4YcI9MQn8b5mzdv6lJ/YrhzPWTgwIHSq1cvOXbs2P16yMezwpunUqVKMmTIEE33BM3/SLdu3aRYsWLSvn17nQwlfECXLl3UAwiCJi/1N2rUSI8p49sTKZwzcjcYDLEgTOzIc/yJJ3wXuV9xZHrr2g25d+O23L52U65efjAPJhFI1ZMpBIwpBLKGnKkX4kQL37Ztm2zYsEGOHj2qRE7epUuXysKFC/U8cd6Z3EXTRrZu3SoFChRQEvf5PcGvXr1a3n33XSlcuLAG/aJOtPgKFSroPZGPTgTS//TTT/UaD+vAjNwNBkOsSGhyh8gh6U0Hd8uM5DWyen+ynD5/NgPBU+b48eMyevRoGTdunBI0WjdE27FjR5kwYYIecx00aLTwsmXLStOmTZW8OTdx4kSNTHny5Eltx8iRI6Vy5cpSu3Zt1bg///xz6dmz531y55POpF27dvKLX/xCvvzyS9XUqa9r165So0YNNdFA7OSl3jJlymhdtNl3DpFi5G4wGGJFwpL7lUuX5YIj9inbl0vB8c3l0xHVJf+4pjJk/Ww5fvbU/bx8QuiQL6SNpn379m2NrPjqq6+qJk2eESNGyFdffaWEPGrUKPniiy+kfv36Whair1mzpmr58+bNk7x582oaHQOdwS9/+csM5A4J+07gxRdflPLly8uaNWt0REA9rVq10lED5E5eRgKdO3eW3Llza0cUvs+wGLkbDIZYkbDkfuvaTaepb5eco+rJV6MrSt05jaToxBqSe0x9mbpthZLs5UuBiyEyd+5cNZ8wsYmZBoL96KOPVPOHtGvVqqXmEjRu0Lt3b/nwww/VJNOiRQupVq2aLiJq27Zthk4C0wsE3r17dyVrr3Vjt4fMuQbED7Zs2SKlSpVSEw6dBmTt28fI4IMPPlDtnnR/n2ExcjcYDLEiYcldbt6RIetmy+975ZfWi1tKuyWtpM2S1vLh0NLSZvFI1eq9eYZykGKVKlWUnDdu3Cg5cuSQTp06aYx4CLVcuXLSunVrJWieAZ3Be++9p6tj27RpI9WrV5ft27dLnTp1pEmTJtoJUJZ6c+XKpeTuNXeuCblznY8//lgnYwHkXrJkSc2Lp4wnd9qHyej999/XPEbuBoPhhyJM7Mhz/IknZEruN27LyA3z5I+9C0qTBc2k7eLW0nxhC/lgSGnpsGSMauRhcue4X79+UqJECWnWrJkSKZOnkPCePXvu29DJB9CkIXfMNmj5kDvhDyjL/5AsoGN4++23M9XcIXevuWNnZ3SA6efEiRPaGdA23CH79Okjn332md6vkbvBYPihSFhyv3X1hmxKTZHC45vJ5yPLS/mpdSTPmCpScHxTmZeyTr1oLl9Kn5ikLCYUbOm//e1vlWQxz0DIaNGYSrB5o6lDykWLFpXSpUtLamqqNGzYUMmftowfP17y5MkjQ4cOVS0bF8d//ud/1vKR5I4XDJ0I5wB2drT+unXrKkmTH8LGREPHUrFiRSX68H2GxcjdYDDEioQldyXui5dkwa51UnFaZ8k7tqGUndJRJm9bph4zVy5lJEiIEa8UyBVbOrZ30qkTwYYOiRcqVEiJHd/0BQsWqOsjmjcmHCY7sc9jvsG9kYlSCJlOALNK2CxDObR6Jlw5d+/ePT3HiIBy2PK5LgTPiACPGvKR5uuIFCN3g8EQKxKW3JEraWaXPccPyZoDOyTl6AE5d9FpviFXSC8QJkLgLVaHQo6R55gwZb9WQgujlXstmjKQKscQLG3CJj99+nTtFPbt26c2+DAp8z8jAkwxnKMcQnTLBg0ayODBg1Vjp/7hw4eruYhRQuQ9hsXI3WAwxIqEJncE88vNq9d1AROf0Yg9LGjUeLlAlOF0yBgtmvNe/PVID5tcfD4+8YNH0NrD9SGU9+ew5ZNGB4Ebpl8UxfHUqVN1lED94Q4iUozcDQZDrEh4cn/cEo1gvyst2vnMhHwQOvfjCR8N3597WF1G7gaDIVYYuT8F4T78vUDk/O8J3RN+NII3cjcYDLHCyD1Cwpqz/5/JV7xkmJD15hzSMbfgAUPQMB8XxpcNi68n8hx14RLJZC07LUHsrGTF5o+dPvJ+jdwNBkOseCbIHdLE9h64Pz54HqFsZPkwGWsdaXkihSiOLH6CcLGz+3TcHSFbPGzC4QcirwEp+zIIebwQzwbXSrxwqJvwwcSegeDJG67LyN1gMMSKhCd378/OilSOlTRD/u0IsVvwaCG2Otox9WD3xgURDxmOScdbhbjtuCni1UIezvE/bo3UwzFtwmd+3bp1GoudWDORK1QRyBjNnrzLli3TFa4smPKeNRA6fvd4zpCfSVrSWChFEDGuE75nI3eDwRArEprc8Yw5cuaEzE1ZKyPWz5Xp21eqW2Q4DyRKBEhWgELA/B9elUrAMDxaIN6WLVuq/3rBggU1HMGSJUtUm+7fv7+W9SGCiSZJPvIQcwa/+UjNnf8xuRAQjIBkRH0kfg3XxMRDR8F9vfPOO9p5QOyQNwurMPPgGomJhnr8vRi5GwyGWJGw5H7tstOKz56SPqunSK7RdeXT4ZXlK/fZfslo2XU8VTV68kG2ECbmDxYmoUVD5pMmTZKXX35ZCRQNHfImRgwRIYm9DsGzOAltv3HjxlK1alX9H2JmJWvfvn1Vy2dRlI8KSUfgyf3u3bu6KInQBNjUN23aJB06dNBIlHxyPxA/Wr83yVAWAud+CXKGiyTH/p6N3A0GQ6xIWHK/c+2WzN+5Xj4eWlVKTa4pLRa1khozm0jO0bVlxIa5Lk+aDd4J5SDs4sWL64IhtHfs2tjK0YwhTMibcLy4JQLC9RI6gBC/aPQ+tkzz5s1VW0fzh8CJT/PGG29Ijx497mvuCB0IIQW+/vprXdnKClUInmtC9vi4syKWQGK0x5f1dnfInRAH3CvpRu4Gg+FRkLDkLjeCqJAv9i4gbRa3krZLWku7JW3ko2FlpPWiB6NCQqDYsVkdOmvWLPnkk0+UwFnQhFkEEwvEDYEC8rCLEp4yhBuA3Hfs2CH16tXTetC2IXfIls06wjZ3rgdJE7+GDoU6iSDJalXMM0zQQs5o/ZyPJHfMQfnz59dRBGlG7gaD4VGRsOTOtnqTti6VP/UpKpWn15WOS9tIzVkN5P0hZaXv6qkBqYfInQnTsWPHKmliz4aQIUo0bK6B1k6cdjRqwI5J2NLR+L3mzqQsER3RtiFqwETp888//4DmDvGTlw6CDbYBoQ2ok2Bj3A/zAEyo0lFgc6ccbcVTBs2dEAe+TiN3g8HwKEhYcr9+9ZrsO3FIaszsJi/3K+JIvbi8MbC4I/qusvnQHtXaPSnyCTGieWfPnl1+8pOfqPaNLR7yhPjZho+Qu5hrIN+33npLd1siD8SPxk1b0Kpz5sypAcOwszOx+rOf/UxNLWGbO5O2xLDBPk9HQgfxzTffyOuvv64dBxOq2P9fe+01jUJJWdroSZ/rEd+G9vl7NnI3GAyxImHJHbl25arsOr5f2i0ZKcWT2kvLhSNky6Hd923t4byUZeIUTxQiNTKRSh5P/NjFBw0apGSMyQbyx66OZs/EKCYcFjFRlx8BkJcOAJMMWjbXCF/Xx3THSwazDzs6ManL5C6dBu2hc4D4OeZaXJOQwGj9EHj4no3cDQZDrEhockcg+G9v3BG55drtPq9feTCAlxeIF3MJwAwSPgdxYn/nGmjy2MjRpvmfdI59ZwBp8wk5M1HKM4OYw/VxHhMPE6740uMWiUsl5hbMM1wPrZzNQPDSgdQ5ZqUr8wKMEMJaO2LkbjAYYkWY2JHn+BNP+C5yf9zCNRDIOdp5Lz5ftHMIRIymj8skLpWYcdDa2Q2KdIib8nQQTNpyn3QkTO6yOIqOIbINRu4GgyFWGLn/SAIxQ9bY3THjYNPHxdHvnRrOx2jC3xukzygg2r0auRsMhlhh5B6DQKqQbjRtnjTOhQkbgdhprzcDYb55WBx5XzdlyBPtWkbuBoMhVhi5f4dAsuHYMmHS5X/ahVcLbpLhcxAxbd+4caOGLYjWdvLTCTC5Sx7+J74NESIjr4UYuRsMhliRZcg9kih9WmS6TwsLPuy4OhLwy09yko7GTUgCPGswvYS1e7R0VrfiWonLI8e+Pl+e++Ece6rSOXCM3zyLnPCyidTyjdwNBkOseCbIHddHFiwFESIfPI9AjGGyhFzD5hSO+R/CRjjnr8dCJkiXSU5fD3kwubC/ar58+TKsUKUMzxHCx6+eLfSAr9cTO5OpkD+ukpA1tna8awhb0Lt3b71nXx/CdY3cDQZDLAgTO/Icf+IJ30XukDoLlsKf4ZC/kCMmD1Z94mYIoUKykCPkSzpukZhEIGFWohISgGiRkDlkjA87baAMZQnzy8KmKlWqqG887o3hFapcl+c4ZswYXfDEOfzh8ZihHnzauSYmG+LS0HFQFuEaaO744rPoijR/L0buBoMhVoSJHXmOP/GEzMgdEoXM1x5IlnJTO8nrAypJiUntZeGu9cFkZhrJUgbXQ1adEhzMB/zC7EG4XeK3QLTTp09Xf3NCEOBnzkpStHHInPjqderUUbPM+vXrVVOnA2jTpo2uPiX8QK9evTRvmNyJPPnCCy9oyAHi1rDqlIVPdCKQNnHcWTCFnZ2ytJXyLJoiKiUbaRu5GwyG74MwsSPP8SeekBm537x2XbYf2SPFklrKu4NLOmKvJp8OLyuFJ7SQpXs23w8/4MkWooUwWUBEGto0S/8J2sUCIwi9SJEiGtcdEiWoFyYVOgG0brR0TDAQPpEdcWuk3mnTpmnIX+qLJPekpCT5zW9+oyF+SWfiFF93whbgEgnhFy1a9L4tnzzUAXmzAhbNnzRfp5G7wWCIFWFiR57jTzwhM3JnVeqYTQvkxT6FpN7cxtJ+aRtpNL+pZBtaRroun+C0d0eGjuDJSzm8XQgBADnzPwRdv359negkCBgRHCFxCBTMmDFD3nvvPY2p7qNC4jVDJ0A5CJlnBdmifWdmc//ggw90FSpg0pR6GEX4DoV4M5FRITH7YOohVAKjECN3g8HwqPCk7uU5/sQTHkbuxG3/oyP3ZguaS7slraXVolbykSP39kvGPBDyF9dCbNmQOJpztmzZdDs9Qgngeog9HNKGSMGECROU3An968mdToCNO5gAxZQCIHzqyozcCUY2f/58zUs8eOpBk4fc2ZcVDZ2Owmv91IGNn/SJEydq243cDQbDoyJM7Mhz/IknZEbut6/dlJX7tknu0fXl67GVpcasBlIiqZbkG9tQpmxbppOq3u4OOVIWW3eOHDnUno55BFs89nY+sZ9DqBAnBMqEJmYcCB1XR7bHg9DRprG5MxHLMfFifv7zn2ukx0izDKtSsbd7zZ1OhHogda4JedMxMA9AO2gjmjrzAJhrMP1A9v6ejdwNBkOsCBM78hx/4gmZkTta+ZkL5yVp6xIpNrGVfD6ihhSe0FwGr50ph08fV68Zn9cTI3HT0dBffPHF+yYP0iFkTCGcwxzCZCn7nrKlHuchfjR2zCeQPZo7HQEdALHdmVRlcjSsubMilQ4A8w9BwHiuBBDDls/kK544kDrkj22ee4Pg8eyB/HGHJD/XD9+DkbvBYIgFYWJHnuNPPCEzckfQzM9eOCdbDu2Rxbs3yYbUnXL8zKkMrpBePOkyYYo5BqIPn8Nsg485RIvGDdl7v3YIHfMLLozk55gJWkw3TJISPwbS9ddAKEfb/QpVjrkH6oHU6VgQiJxRBKYZyJ36MN2wHWDY3u7rNHI3GAyxIKHJHQnML4GPu/eQicwTFuqAJCPzcezrh1T53+fh//C1+d+TM3VFqw8hLfJcuC7OYYdnJIDJhnz4vDOqoAMJX9PnN3I3GAyxIOHJ/XELBBuNqCMl1nzfJZF1eG09Wt1G7gaDIVYkDLljEsGm7TXfpyGQa7T0HyLUyX35uvn0EpmXCVvInZW2Ru4Gg+FhiHtyZxITn3NIHkLDy+RpCNfGBv+02uCvy6Iq5gzQ8A0GgyEzxD25o7GuXbtW3RjRWDFJPA1h9MBEK5EeCQsQLc+PLTwDiJ2OzseJNxgMhmiIe3IH2J+ZcMTT5GkIk5v4nrMACp/1p9EWgojRDkYPBoPB8F1ICHKPBwwbNkx94PFmMRgMhniHkXsMYDKXODAsbho6dKhObBoMBkM8w8g9BmzdulVXlrKBBnFpsHkbDAZDPMPIPQZgkunXr5+uNiW0LzFf7DkZDIZ4RpjYESP3CBASmDgvTKSyDR4k7zf4MBgMhniFkft3AG29bt266iEDcIkkvC+xYAwGgyFeYeT+HejWrZva2f0kKhtuECUS33t7VgaDIV4RJnbEyD0EQgCw7yorZD0wxxC7neiRZpoxGAzxCiP3h4AVsfXq1dMQvWGwO1Pnzp0tvovBYIhbGLk/BC1atFCTDBtvhIErJHZ4YsMbDAZDPMLIPROgldeoUeP+Fnlh4DXDPqiYZizGi8FgiEcYuWcC7OzNmzeP6hXDM2LTa/ZWJVyvwWAwxBvCxI4YuTugjbdr104GDRqUlvIg0OzLlCmj8dUNBoMh3mDkHgUQdtOmTXVjaxDtmeAp07FjRxk4cGDU8waDwfA04Undi5G7AyaX0qVLq4/7xIkTZdy4cTJmzBhdmTp27FgZP368HrNylWBi2OANBoMhnmDkHgXETe/Vq5e0bt1ahUVLlSpVkvfff1+9ZNq2batpnBs8eLDcunUrraTBYDDEB4zcYwQbZuAayUbdBoPBEO8wco8RmzZt0rC/FlPGYDAkAozcY4SRu8FgSCQYuceIDRs2SP369eXw4cNpKQaDwRC/MHKPEbt371a3R4snYzAYEgFG7jECv/bTp0/r5h0Gg8EQ7zByNxgMhmcQRu4Gg8HwDMLI3WAwGJ5BGLkbDAbDMwgj9xhx+fJlOXDggE6s2jMyGAzxjjCxI0bumWDXrl3Sr18/mT17tsydO1fOnDmTduaHg5jww4YNkx07dqSlPB3w3V+8ePH+ZuAGgyFxESZ2xMg9E/gVqkSJZCOPkydPpp354Th37pwULFhQ92Z9msDNk4BodF4GgyGxYeQeIzy5s1L16NGjap65c+eOmmpYtbp69WpZtmyZavTI8uXLZcWKFXLlyhUtT2eQmpoqGzdulAULFmjMeL83K+SeJ08emTlzph4TnGzlypW6QTd1+++EBVTUsWXLFlm0aJHu5Yq5iLaxHWA4NAJluCYx6cl77NgxTWcjEuo5ePCgtoVrUA/5ScuZM6c0a9ZMtm7dKhcuXND6uefp06fr/ZBmMBjiH7zTYTFyzwSbN2/WDTy6dOmioX4hXUj4448/lq+//lpy5coln376qZQsWVLDAqOJ//GPf9S9VukEKPvmm29Kvnz5JHv27JI3b15Zu3at1n3+/Hk9xuSzZ88eqVmzppJs7ty5te5Vq1ZpPup65513tG7CDxctWlTq1KmjMeU/+eQTze+Jmg6gXLlyWv6rr77SzoN7IDwx0S2zZcsmhQoV0k+uvW/fPpk6dar8+te/lldeeUWqVaumI4lWrVpJjhw55JtvvtH8w4cP17YYDIb4RpjYESP3TODJne33GjdurFouK1YhQjbSZsMOtGfIHhLGxDFy5EjJnz+/hgtu2LChEjD/X7p0SSpXrizt27dXezt27gIFCsiECROkb9++un0f1ztx4oRUrVpVypYtqxo3GvXnn3+u9n+uD+mWL19e89FB0HGwsQj1EXO+evXqGpserZ149CVKlNDrsckI12PUQQdFnZSjE4LEhw4dqv8zuqDjYLtBtH1s8bYxicGQGDByjxF79+5V0uvevbuSOxoyZo+PPvpIJk+erHkwj1SoUEFt8gAzTeHChWXp0qVKthD81atX9Vz//v2VfCFmyB6yHTJkiGr9aNlci92eqlSposQMebOtH8HLIGhIFiKmDICM0fjpHCBlSN+fHz16tHYSFStW1BEHIw/ag2kJFCtWTHr37q1aPR0J+QEmJUYqtIEOi/s8fvy4njMYDPENI/cYAaGiAePVAsF6ckcb9xOhkDvmDDR4ALkXKVJE7d4QKhq+J/cePXpIrVq1VCP25A6hUzfmFbbyo5OAUDHLoDVDsNj9aQvHEDGjAwDZo5H36dNHNXI6GTT1pKQktZdTD2YgOhPa0rlz5/teMWjntAeyZ9TAdoIezAcsXrxY82O+ad68edoZg8EQzzByf0SMGDFCNW4mNiHKt99+W23VYP369Uq4kCmAFNHC+YQUP/jgAz3HZClaNUQMKaOVY2KB0NGaIWY6DEw45MW0ArCVY2OH3BE0brb5A9SDhs2+r0x6osHT0XBt6qGDwJyDNs7IA68Y6gCYjjp16qSaOyOHevXqaUeAHZ7J1OTkZLXhlypVSu39BoMh/mHk/ohg82yIE60drRZt3E94EhYYcl2zZo0eQ4gQMp8tW7aUzz77TDVz7O0NGjRQ0gV4pKCRUw5PHEwkdCAQLYTtzTxo6YQdRsOGzNHk/SgBGz/l0NTxwkF7R9vGVANZQ/R442C+YfSByYc6AJo89n6+e7xnyIt9f9q0aVon5WkL98qkr8FgiH+EiR0xcv8OYFZBM2aCExJlUtXbrtF80cL9MeRJB0B6o0aN1OaOiyGC7dq7QvLJxKYvB9mjZTMSQGv27oeYb5gs9V8WdXszD8feddGDvGj969at044kXA/iv2vq8eXoJOhgGJnQJkxRTO6iwWOK4r4NBkP8w/OEFyP3Hwlox127dlWiNxgMhh8bRu4xAg2ZRULfl5y3b9+uWrRpvgaD4UnAyD1GYNbo1auX2toNBoMh3mHkHiNsg2yDwZBIMHKPET62TDh+i8FgMMQrjNxjhJG7wWBIJBi5xwgiKOLOaORuMBgSAUbuMYLVmkRExK/dYDAY4h1G7jGCBUYQOys8DQaDId5h5G4wGAzPIIzcDQaD4RmEkbvBYDA8gzByNxgMhmcQRu4xgqiJeMz4yI0Gg8EQzzByjxEE/fJx3A0GgyHeYeQeI2wRk8FgSCQYuccICz9gMBgSCUbuMcLI3WAwJBKM3GOEhfw1GAyJBCP3GLFnzx4ZNGiQxZYxGAwJASP3GIEL5KlTp3QDaYPBYIh3GLkbDAbDMwgjd4PBYHgGYeRuMBgMzyCM3A0Gg+EZhJF7jPCxZW7evJmWYjAYDPELI/cYsWPHDuncubOcOHEiLcVgMBjiFwlB7qwKnTJliowcOVJGjx79xGXMmDHSvXt3qVatmgwYMEDGjh0bNd+PKaNGjdJncOjQobSnYjAYDJkj7sn94sWLsmTJElm1apWaRfbv36+fT1OeRhu4JiEQZs6cqQuqDAaD4WGIe3JnuT+EdubMGV1IdO3atccu169f17qxp3vhmPTIPOG0JylcF7v/li1btLM7f/582hMyGAyGBxH35I4ZAnI/d+6cXLlyRS5duvTYhPquXr2q/587e05DC7AKlc9zZ89qOucf93W/r0DyBw4ckIULF2o7DQaDITMkDLmfdWT7uEgWDRiixORzYH9AlsOGD5eu3bpK+w7t9XPYsGGajknk0sWA5CkXrb4nJbQB88yiRYuM3A0Gw0OR5cjdE/vx48d1grJh44ZSq2Etqde2odTr3EjqdXGfXRpJg3aNXHptadCooUyeNFmOHj2q5Z4mwRu5GwyGWJGlyB1ixna9d89e6dipo5SqVFqa9GohfWcPlBErxsi4jZNkwuYp+jly5VjpN3uQtOjbSspVKyedO3WS3bt3P1WCN3I3GAyxIkuRu9qsHTk2bdZMytQsJ31nDVAyn7R9hpPpMjVllszYPVdm7Jkn03bNkSnJM/V8n1kDpXydStKyZUvZt3ffUyN4I3eDwRArsgy5Q4wQYs+ePaVMjbIyaPEwmZw8Q5K2TZPJjtwh9rEbkqTvnEHSc3pfGbpslEzcOlUmbZvu8s2UgQuHSrlaFaQfm2SfOPHQtkD8XI9RgpfHYVIycjcYDLEiS5A7ZIswQVq+egXpPLGHJG2fpsSNTNwy1aV1l9yl88rv/vyC/Pvv/l3ezP62tB3VUaY7DV4J3mn2Hcd2lcq1qshiR66+3shr0UZIGI+blJQUdV1MTU2VCxcu/GBt38jdYDDEiixB7pRjArVLty5Sq21dGb1m/H1ix/TSaUJ3+f1rf5DnnntO/vtP/of847/+o/zFX/yFFK/1jczev+B+3jHrk6R6y5rSs3dPOXb02APt4RgSZ8FV69atpXz58lKpUiWpWbOm9HUaPySPFh8u8yhi5G4wGGJFliH3DRs3Sv1mDaX9qM6StDXQ2iH2MRsmSr7yBZXY//35X0nF5lWk9fD2UqxmSWk5pI1M2zn7Prljm283vJM0bN5QNm/eLFcup7cHrZzrLF++XIoVKya5c+eWTp06ydChQ6VVq1ZSuXJlWb16tdy6dStD2x5FjNwNBkOseObJ3Ztk5syZI1UbVVebuidriJvj37/6B/nL//yXUrRGCbW/zzmwUE014zZMcvmmaWfgO4QB84ZIxbqV1cTj6+eTSdZjx45J48aNJXv27Hr+3r17+lAh9J07d8rBgwe/dweFGLkbDIZYESZ25Dn+xBMeF7knTZokFRpUkmHLRyuBQ9bY0zuN7yb/52f/IP/7b/9G6nZrqJ4ySuR40Dgy98QepE2XUWvGSYlq38j06dN1cZOvH3PLtm3bVGuvWrWqmoEgfN8GzkPOke17FDFyNxgMsSLLkPv4iROkvCP3ESvHZiD3dqM7yd/83d/I3//TP0ijvs0cuc/NQOhhgdzHrJsoxauVlKnTpmUgd4gcW3vBggWlefPmGgvnh2jp0cTI3WAwxIosQ+6Tp0yWCg0ry+DFI+6bZSB3PGD+7qd/rwRfv2djmbk30NyjCeQ+3Gn+39QoI7NmzbpfP59o5hs3bpTChQtLvXr1lHzDmrrP90PEyN1gMMSKLEPu2MCrNaouPab2uU/u2Nx7zegvv/7jb+W//NV/kTKNKsiUHTN1opVz/B9J7j2n9ZUq9arKsmXL7tfNdSB3bOoVK1aUvHnz6mpWbO2cR6vnPO0nnk1kG2MVI3eDwRArnnlyRyjHhGbjlk2k+YBWOlkKuU/eMUNGr5sgOUvmVm+ZF177g7Qb2VEXL6HFtx3VSRc3sdBJOwRH7o17N5PmrZtrfeH28D9EPnHiRHnvvfekdu3aGncdQt6+fbt06NBBVq5cqeGEw217FDFyNxgMsSJLkDukS8jggYMGSsVGlWXQ4uFqd4ew0dJbDWsnv3z+l/J//cX/JX/707+Tf3v+3+V//u//KaUblJPZ+wI/d/Jj0ilXt4IMHzE8qk0d8iWdXZNy5colH330keTIkUO9Z/B5Z0GTkbvBYHgSyBLkjlB20+ZNUqN+TWnYs4mM3ThJCRsZ7/5v3K+5vPbh6/J3//T38r/+v/8tP/v3f5YGTntngpUwBYQmqN+9sdRrXD/wcU/T1COvAwFjesFzZtKkSUr08+bNk71792p6tDKxipG7wWCIFVmG3CFVVo9OmTZVSlctI80GtlQ/dshdbetOOx+yZIR0mtBNzTE9Z/Rz55NUsx+3PkmaDWgl5WtWkOkzpusuSA8jaUg4vJvT7du39f8fQuyIkbvBYIgVWYbcEcjx9JkzMnrsaEfwpaVm+zrSf/4QmbBlipI83jMIk6m6MnX7dD1fu2M9KV+jgowdN1ZJlXqi1R8pkPkPJfSwGLkbDIZYkaXIHbl6JbCLz5k3R+o1qS/FKpdQku8wtov0mzdYBjvtvf/8odJhXFdNL1alhNRv0kDmzJ2jwcBiJfYfQ4zcDQZDrMhy5I5Akti/d+7aqf7vrTq2lnI1y0uhsoUlX8kC7rOIlHXHrTq0kUnuPJ4xFy9c1I4hWn1PSozcDQZDrMiS5I5gLqG+C+cvyMFDB2V78nbZuGmjrF+/Xj+3Jye79EN6HlJ9nOaV7ytG7gaDIVYkDLnjyuhJ9nEKBE+9mQnno5V7GsJiqAMHDhi5GwyG70TCkPvj1twTUehsTHM3GAyxICHIfdy4cbJ27VpZt26dfmZV2bBhgyxdulTmzp2rk8IGg8GQGeKe3A8fPiwjR47UhUCQGnHZs6rMnz9fRzEELTNyNxgMD0PckzuaO2SGdwsLg1gUlFWFQGQEJ1u8eLGZZQwGw0OREORuNvdAzOZuMBhihZF7AsnTJPdbbtS0Z89u2Z68TZKTt5uYPH3ZsV22btsiW7dulhs3rqf9Ug0eRu4JJE+T3E+cOCHDhvWV5SunyLLlJiZPX1aumibzF4yTdu0ayZQp4+Xu3dtpv1YDSAhynz17thL7nTt31O6cVeXu3bty5MiRp2Jzx9Y/enQfuXdvv9y5u8fE5KnLvXv75PKVbTJmbDcZOrSTTJ8+0ZHYvbRfrCHuyR1vmWHDhsnUqVM1hG5SUlKWlcmTJ+tmIDNmzNCRzJMEnezYcf35z8kBE5M4kINy7foOWbBwpBw8tFwmTe7reGKCUwJNgwdxT+5KKmPH6ubTyIoVK7KsrF69WrcLZCTzpF0h08n9oJP98q2JyVMWkVS5cjVZZs8ZJhcvbZWr13Y4gu8vc+dOMxu8Q0KQu5llAsEsw0jmaZhlHkbugRaVqp8PS3vSQjuDNtBm5Om2x+TxSpjcT5/Z4I6PyOWr22TmrKGyeBGcccmlZV0kBLnbhGogT3NCNTNyhyyvXU+RM2c3yI2bO/UY4f/jJ9bI5SvbM7yQT0p8O86d3yQ7d82XlJR5cur0erl7b6+mRytjkljyILnznR+S8xc2y7x5o2Tp0rnuvbno0rImsiS5h4NxZXbef2aW52lIfJL7EdmydYb07t1C9u5d7I6P6Qs3dlx36de/tRw+ssKleS0+owTlI89F0/4znntYGX+ez9VrJknLltWlXv1y0qJFNWnTprYsXzFebt/ereUiy2SsE3l4O77rXHA+fC447+XBOoK09OMHy/g86XX7MhnzR68n4/lEF+7Fk/uZsxtD93dQzp7bKAsXjpVly+e7dzhravBZitwhauqAJPn0/4cJPPy/3/M0Xgg+Psn9hPt+BkvBgl/I+vVT3PERGTqsgxQunEMmTOgl12/scGkH5KbT5C9c3KIvHdo0E2GUx+sBjfpA6lLVuMLkw//Xb6TIkaMr5djx1XLzlh8ZpOrI4PCRlXL02Or7I4b0Nh2VzVtmSIkSX0v1GiVl2rT+Mn/BCBk8uJ1MnzHAEcJ2rcPnv/ftPlf3Lq2H9qUeXC5XryXfz8Mn7eV6p06vS9P+g3M3b+2WEyfX6oQenhvpbT+g+Ujjfqn30uVt7n73yi3XuXBf974NRhG37+xRezHPgmfLtQ4dXqnPxLeVMoyQqNO3iTooRx23bu9yz2KVGy2t1fpIo56z5zbp9S9c3Kyf585vdve5S+tIdOEZQO6zZg+Vk6fWqfcMz4fPb7/dr9/VnLkjZcmSue4dznoEn2XI3RM7uykRgIyQBgThgiwhcfKwxD8lJUVjuBw/flyDdRHP5uTJk0qskXU+aYlXcp8+faDky/eZe16TZNyEnpIr10cycmQXffHID6FNmdJPKlQoJNWrl5TyFQpLt26NdSg9e84QqVu3rFStWlwqVizi7m20q/ewK3dAtifPlmbNq0mFioWlUuWiMmPGQCW53XsWuDLlpHz5QlKrVimZPLmvEhkvO+Ug99ata0pO1w7quHs3IFoIG7K7fWd3qP14XKS4OvpI02ZVpE6dMvLNN3mljmvTvn2MRI666y2Utm1ra/u45ugxXeXGjZ1KxkOHdtB7qlKlmDRuUtmNYma6evdpOTqDRo0rS7lyBfXe69cvLzt3zlPvjmHDOqZ1Zvtl0KB20qBhRdmzd5HWOcx1jtVcneXctah7y9ZZ2oaBg9rq/9R913VIXbs2kqRJfZS0O3VuoPlpx9Ch7ZXs6NAaNCgvlasUlaLFvnJtKCxNXBtXrpqoHRrPyj+HRBTfwU1zv7+p0wY4Ih/uZJjK3HnD9f5HjOwsTZvWcL+reS5/1kKWIHdP7Fu3bnVkUEs+/PBDyZ07t3z55Zcq48czVL+tHih9+vRxL3JbJfeNGzdK8eLFNWgXk7nR6n6SEr+a+yApVCiHktjzz/9KiRrvBbR48qMVt29fR0lz3bopSuz5C3yhmub+1CWyenWSbNo0XVq1qiFlyxZwpLpENdb6jphq1y4jS5aOkXVuVLD/wFK17Zcs+bXUrPmNrF6TJOs3TJHduxfIjfta/SGnLSdLITdyqFmzVFoanUUwXI8kNPJzrYYNK0i2bK9LUlJvWbFigvve8zhirOA6/q3SuXNDqVevnJp0Zs4aJF/nza7/U+dWR+Zr1kySRYtHS8NGldxvp462UeSkbN02U/K7Tq9Pn5ZabwnX7oWLRsmAgW3ciOIb7dz2ONJ+991X5LXX/yhr1012L+F+JfKNm6a5+x6tnUnzFtV0/gKi7tu3pav7iGxzndbXX3/qiG2A1lfZdX6LXRvmzB2qZaZM7ee+s+WybdssGTe+u3z08VsyxJE+7WWkFH4GiSx3nZZ++sx67Ugj5cjRVXLCjWRmzBzo3plZTqPPWj7wCU/uVxxxX79yTW5cvS7Xr15zx1HyuHJ79uyRSpUqKZnjL757925JTk52Ws5Q98L01S8ejZ48gwcPVm0eQi9ZsqTT5twL64ifzTIi636SEq/kPm/+cHnhhd/Iz3/+T1K06FeqxW/YOM2dg9wPqbmjpSPuxk6LpTzaet68n+pLef7CJqdlDZNBg9tJDUd4b775ktbHJCgdBlqu7yQQSP4//uPfZZc7T90PkvVhJdevcn8sLVvWcMfH7ueh3dHInY6oWbNqriMpnTYxd0ZGje6ibZw6rZ+ULp3faX9VHPlOch3KRCXKXr2bq/YLeUx2o5IePZu630pevf/9+5e4Ok4pQRcpmktWOU15n0urWq24u7cR0n9Aa6nhOh4Iu6HT2Is5rTp/gc9Vo+YeqTd5xxwZ6Ej7yy8/cKOgzm70sc9p+G1U+6eNffq0kLKuM6UjoJ21XNvXr5+sHWGJEnmkQ4e6aR3sMX2WBVxnumHjVL3fyGeQ6ML9ZC5HdTS1evUiI/dEInc08nMXzkvK0QOy5kCybDuyV06dO5PBRu619gkTJsh7772nxE3ajRs37pP1+fPnNW3IkCFOu3Qa4erVGoES10Py58yZU000aPe+3qchT5PcccHMjNwZBv/pT89L//6t1AbtzSzYoiEXyL12nTJqOoBcIPfChXM6Apur2nqRIjmlT982TruvK6+++qIuRlnniKpgwS+d9osZ4qQTtG/KDnXk/m/uO8UWDXHTnnT7Oce0oVTpvGoKwRad3jmk2/PT8x/SuYA2bWpJ23Z10uzmF/Q6kGbfvi0kV66PJXv2d91IoLS7rxKO7As4DX6wnDy1VkcjZcrmV8JmpJA//xdKuCJnZeXKCapd70iZK3v3LZJq1UuoqQBNm5EAz4OOY/KUvk6pKCLLlo/T9mBCGjeup9b95ZfZZMaMQS79mHYuPMdBg9srsTOHgC3/nXdflffff90RfBmp4tpXoWIRNxrtmWYWC8idZ+nJPXz/z4oEHXc0OaLzL0buCUTuV52GftYR+8QtiyXX6Pryxz7F5bPhtWTA2uly5MwJ1ejJB2lTtkuXLpIjRw5Zvny5kqTvAKgToscM06pVK/fyVnVa4S5NQyB6OgU6h6xI7vfufasvBdv7jR7Tz6U8SO7YPHPn/kTNEyKnlZALO8IeOLCt2rP37F2omuOUqXQOh90weZAe0ylUrFRUxo7t7p71IT3/4ov/oXZkJlGxE7O0/Pr1nToJeOvWHu0QXnrpeZnntP2bN3e7cilqb0+faERbO65ab/bs72hHcu36LjUNHXXD9IOHlinhf5tG8pDdJafhopmXKp1PNewbN1LVnl2w0JeyYsU4qVathGrmFy5scd/BDp2oow7u8/1sr8v6DVOVSLt2a6RkvmvPAlfHAenbr5XkdceXLiXLjp3zpHKVYjoqwcb+tes4XnnlD+6e+6pp5ptvvpaly8a6l3C/dobcM26ktINOBpLCtt6rdzPJ9sEbki//57Jt+xz33ezX0QKd5Pnzm7V9jFwwNQX3d1g7F0ZTdJh8f/67ywpi5J6A5H772k1ZsXerfDailuQZU0kazm8qxZNqyBejaknS1qWBxo64MgS9grjz5cunG2CT5skdYSKV2Cn169dXm3xqaqqmodlDph999JH06tVLj8NteNLyY5D7nTt3HUne0o7My/Vr1x2RnXcd3jHZt2+P7NyZLIsXz5eJSQNciQfJffbsoWpawGbMMZOeI0d1kUqVi6lNuGu3xqq1YgPlZcMujFa6wZEipFrPafrjnKaJHf0Pf/iNasVcp3uPxqp99+3XUkaM6KT143HCZGlJR4ZorqNHd1VzBhNrXiuHsPGuqd+ggnYQPXo0lSFDOygB0llAmp7kyMsxE43Y3JkPwIUzX77P9bp37+7VSTmIGXs3GnH3Hk3k0OEVcvzEarXtt2lbW4YO6yjFi+fWcjt3zXMa+nApUTKPI/K27hqnlWDr1C2jtnncRH/5q3+VGu5+L11OVjMOk8aYb+gkmAycMKGnjHL3VtFp9K3dqCIYfRxWE9bzz/9SqroOh06AjmxiUi8pXSa/u88mTuPv4UZQrXUiOZg0PSK7di9QUw1mIiP3rIOEJfdvb9yRYetnyx96F5CWC1tKuyWtpfXilvLhsDLSbvEoN9S+qNo9Zdhcu1u3bvL555+rhwwk7cmd/9HIIfd69erdJ3fSIVM01kQm99u377h2X5eLFwPXTi88z6NHD8vu3SmyaRNbGC5Pk2WORJfI2rWLZM3a+U5mO5nhiGeqIy3MDQ+aNSAnPFmOHV+jx5g/zp7boCSNQPCYKu45rZRz+w8s0XRIdePGaW5U1UgJcsKEHkpUaPrYSjHrjBnTVe31bdvV1glUNHTc+YYN7yjNm1eTzp0byIqV49PML57c0d5T1U1yuOsUsPXjyQJZB+1I9xShvRec5s5EKATepWtDaeY6HOrHXAOh4tXCPbRrV0ft+N27N1F7OddY5H5r+M936dLQdVA93IhiuHYsCxeNlFnuHoNO57CcObNBFi8Z7TqF5ZLitPjefZrfv88z5zY6jX6YtpfJ4EmT+qqJClIfMqR9mnnLkfK3h2XBghGSL+9nbnTTW69P+nVH8oyCgvZV11EG9xncHz7fm/R54yYZ+f0962LknoDkfu/GbZmweZG81Keo1JrVQNovbSMN5jeWD4aWle4rJspFyNCRu2rwrty0adPUSwbzDHVxn0yYHj16VAkc7b5FixZSuXJlnWz1WiyafrZs2TS+DSEAwhr/kxbInY5n2bJlek8e16/fcB3YeXXZPHnCyckT7n6Ou2eXKikp252GTEyehbJ8+Twnc53McYQ4x5H2XKfNzZPt2xdI8g5kvsqOnfPVMwXzQ+BiGJAyEv0F4lzGibr0NDT94DNafv6HsAMfb/IGni3p+Q6q3zZ50gk5SKdMUO5h7QryBb7f1J8xL+2AxNu1qyvdHGkzCYmrZFA2Yztowy09Rz3pbcHVM2gH9+Tvy9+3z0cax0G9gSbuRw/+HJ9BnZiRgg4rqJNr432Drb5hw0o6ciA9XJ5O69adoJOjDs5F1u/TsooYuScgud+8el12HNknFaZ2dIReRr4eW0E+HVFeSk1uK8v2blGTjCdiyqHxNm7cWO3uuDriMTNmzBg3HG+ik6aYYQYNGiSlSpVSOzvEzoTq8OHD1cOGoGVP2+bO/Wzbtk1Gjx6t7pnLly+TxYsXuM+Fjqzny8pV81w75zqZ42SWrN8wV7ZtXyh79iyV1IMr5eDhVU5WqBw5ulpts1evYZtFk/WkExBZ+v8/PiEE5OMl83OxpEdKOF+0vNzjtWs7VMvGHBKYOh6874B0H6wns/TvkoflDdcXCJPEO3VitU3bWrryNtzZBWW+XzuedTFyT0Byv3zJkbeT9ak7pOmCwVJ8YhupN6e/LNy9UT1owhq2/3/nzp3StWtXKVGihBQsWFCKFCkitWvX1kiLEPnKlSulfPnySujkR7MvU6aM1KxZU7VizDK+zict3MOFCxdkzZo10qlTJ51DaNOmlbufDjJyVD837B7lhv3jZemy8bJkyVidnNu0Zboj8eUSrBJFUzzh5Hjo86iTrKnReYEU0XivuxEKoxT+j5bvaQpthMwZYTCpGhB79LwmGcXIPQHJXQkPgnekh9fMyXNn5Mz5c/fTw/m8UB63R8wwmzdvVvMLK1axQWPy4H9s840aNVLXP8g+b968Gj/9aWvtCG3cu3evrppljoA02rljx3b3413hSH2+k3m63BpZtmy2LF8x02n105xWP9Vp81OcTHKSpJOZrIjENi5pKyozCp2BNyM8++TvRyrRzsWLBG1MNwn9EAnq4Tt+tLqC3wS/D8xngStqtHw/RIK2cY0f7rZp5J6g5I5cdsLCJZ08xcaeCbF7oQ40cO8NA2F6zZ60HTt2aIjhY8eOORJcpWEKmLwkX2RdT1poA+YlQv7GEs8dW/yRI0e1I1uyZLEsWDDfjVLmOZnjZLYsWjTT1TVVli6d5CTJyQQn42XZ8omyafMMST24TC5dZlKRoT4v9fd/kTMjkcfVcQRtfPS6Htf1n5Y8rP3BM4l2LlUniZlXwbafWR0Z0w/oqIYYOsnJc3SVK7GEgtWuGct7E1E4LUjPrD3pwnkmuFkXwERwZm2LVYzcE5jcH7dA8GjpXAu7O6YZOoGwmSdSyJvZedIh5XAnwmf4Xh5WPiye3B+XK+Rl1xmmph6UdevW6yTtsmVLnSxxsliWLlvgiH62k+lOprqOYYIjfBYUoT1GvkDp5B98IsFLma5tBppxejppPp3PzMjA53uwvgfzBOceTA+Lr8e3OWN9wTl/HX9P4XKkIxnb69PDaUF60I7w/+F8Dx77+hF/7WjtSD8OPiOfx4P3ln7upHruNGlaRSfNAw0+veMOl0v/pOwBdelkwReL1HAtDTykoj1zyvhyvp708/5aYSEfHcj4CT3lq68+ksFD2utcQ2b5YxEjdyP3hwpEimC+iTxHGvZ4NOnIcwikjScOXi6YfTjGNZP/saFTngVUmIuilQ/L4yb3h+Hu3W9dOy/IgQMHZdu27TJnzlwZNrynOwNphF+eVPU9x5eaoFbJ7uXHdQ8PEl5m3B0hBGKxsOiHRU2a7soQKnjlqgnqGolvfMZ6D6gbIW6Wxx2B+AlE5g+o76SSEtrkfjl5ar2GJcBV0rsoXry0xeWbp21isQ8xVoirQsgD6qe+fe66xLWhPvzL0UCpE88XQhVv2TJTy6fsnJ+mRe5Xm3dwf7Q3yE98EyanqZuAXkF6cA943+AayfUgrmPHVquni5+4xVeeVab+vqkHbZg1Adu2z9Znxift2JEyX91AKcezIUQBcyss7PKB0y5d5nqr1OS2YqXrkB2xBe6YqeoFxGhs584F6i6Z5+vs6nfPIizaGLSbCJgpuqqV8snJc9Pa6p69uwaaO88ZP/yFC0eqhk0QNc7T/rNnN6o/PWVZEMb3yu+De1i2fKwj2ulpAdOCZ+fvG+G3xbMgDMSvf/0LDZ5GZMzvYz7yYuRu5B5VIGKEfUvxrIGkIVh/Ho0e883AgQOdZrvgAQ2c85h2OnToIO3bt9fYNZA5NnNMP3QKEPy4ceP0Hv01fflIeZLkHokTJ05mEn7guGvPKF1EQ9gBgm3VqVNWCQOtkKX2LNapV7+8NG9R3XUCC/Xl1uBZ1UpqOgJReAIP6j2oxFGqVD4N6gUJkoZ/9yfZ39FYNOTd7UgMn3CiOCING1VUMqZs5y4NlCAICeAjIq5ZG/jKz507VKM80lZi2gwZ0iGNdI5q7BbyEiKhUeNKUrpsAZmYFPiVT5jYS3r2apZGspBOQIZEwSRC5LU0Ig3I65D6veN/DulC6lwT8goWdB2X9h3q6qKmwGPpgC7KGjyknQYaa9e+jrY/R84PpXr1EtKlayMldFafjhzVWdPwya9Vq7QuGoPE6UTRqgmFwHfBYjGeFR0QBEtaI/eMWNz15z//XoOdkb+xu09WBUPGhGrmuRD3hsVSLOK6dWuX6yBn673wfHiGrVrX0iBuROnE/r7XfRdo86zoJQbOoMFtNTrl0qVjNfhZs+ZVpW69ctK7d3PtwILn5H9HyGHtFAjF0LhJFf0+CdR279ug0/G/uUcRI/cEJ3fs7oH3zIPn9LwjTIgxTMykeZu7T+N/79/OOU/WEDseNJC7L0Mefixo5IULF76/yMmTM+YdtPmKFSuqZw6RJ/HW2b59uy6Woj5/T5yjDiZLw+2JFM49LXLne4hO7qf05Sf8ANEHicmSO88nuvSeMAJlyxVwz6+bEgOaM5sqEAwsb75PNewAq04Jd0vo3mCxjvfdPiSbNk+XTz55W9559xWNeIgWXLRoLnnxxd/qYh3cOPsPbC3lyxXUVa+rVk/QpfgQ8tUryZKSskhXlBYq9KUSI/WdObNZtUMIs1Xrmu7Fn6nkB0mhWeJJhHZKeATC/9K+Mq7jIrQABEM4AFaTskgoGJ0ccd91iiO1mtKsWVVdhJRO7of12RDWAA10ousYfve7X0pOd+19+wknfFqvC/ERb537o1Mh9DBEnJy8WEn73XdfdffRw93PQqcc7NCOsESJ3DJgQBun0c/UToVwD8SOIfwx+bt2bex+a3O0E/3447eD+xzUTjs5whDQ3nfeeVWmTuuvwdAKFPxSr4WHFeTKKty166ZobP733n9NI28SK4cY+VyT7/Dtt/8sL7/8gmrjdIqs7uX7WbRopPu+5+piLTqiQ4dWKMETdqJjp/pSpEgu7fT8SCn4vlnvsN+9R82lpvstMPIgzDLxd+gYv69pxsg9gck9Q1RI9xkZFRKyxQSyYcMGjQLpPWMwjeBWyCIlT8qcx4ccTRyN2+clHs2SJUuUrCFtIkyyqMn7mxPWoHv37vfroQzXpFN44YUX9Lz3cKFMhQoVdMNr8lEfpI7/PYRPed9BREp8kvtJDR1A9EJWVHbq3FBy5vpQl86j5aElBtEJCf51Qu5+u1e6dW8sf/rT7zQULuRHfJniJfKoGQVS91ovLyVx3CHafv1aamdRxmnRBNvq5EjisNM00SyJ2w6JET0xb97PVFsNTBHnNCY7GijhAAIPjOM6WayRJR1hkYfwsBA2GjNkQKwXSIrOh7bQkRAFEgJilevnn2fTnZ0wbUCIEH3HjvWVjIJgXenkPnZcDw0hQNwcRhiMBipXLuZGFpD7KQ1xzPOi8yFMA/fCCCcIkXBBtifPcZ1TTh2J0BnQPsIpfJDtDa1v+PBO7pnXdx3GR240OERXt5YtW1CfHdEt0ZC/+OJ93SmLFb1B8LaLGl+/iOsIA5v5WR098Zx4Bp9//r5q8tRNu1566QW10WPConNIctfo0LGehpfI5zppOqJr15Llm1J5dSUx1w1cbQOPKzoWFojxDDmPIsDK2+D348n9iIaALlYst4aO5jsiXAMhHQilkP67eDTzjJF7ApI7WjoeMgdPHZPB62ZL7Vn9pefKybLj6P4HFjBh00azbteunboOMmFKcDD83UeNGqURIIn6WKNGDUcM36i2jQskq1o5R1l8yzHB7Nu3T2PQUJbPokWLyptvvplBc+fzyJEjao75t3/7N8mVK5cjnpGyadMmXQVLuXD8GjoNwgqXLVtWbe/ROjEkXskdswKBsAYMaKukQaxyiB2yaNGyRprmxYt+RO7c26NL/NH6ps8YpMviCZlLnPPAru0n/yCF6WrS6dqtoZoyPnckxbWI8Q65EK+8WrWSjlTyaT0sRMJss2z5OLlxE3I/qp4dmIuI6Y3NG8LduGm6RpbEWwTCxL5OJ4IZgQ4IEsvlCHfJkjFuhJbiSLGq9O7Twp07qPFl2HWKWDeESqBTgNhbt66lZBtJ7phzvnYdDiF5iTPTu28LNZnQISi5OyIjzjsdF9EwiSPfomXNtGdxQkMnY1YKCC6Y+OzcpZFTBj6U0aO6KaFPnzFQZrnPI44cJ07s7TTvoqpdU55RCiMFOlTi+BCbXuSSTJ3aT6979FhA7pA52xESV4cOsq/reBkNoW0TGx4zEs+FWDrsbkXYB0YikK/OpThyZxQSdB6QO7+TQ2rmKVOmgE7CrnLlp03vrx05UTSD78N/3yc1qBqxhYgS2sJ1cMQrevPNP6nyEDzPYGLZ//ZiESP3BCT3a1euypHTJ6TN4lHyyfCqUmhCLflqdG2pP2eAbD+y1w3LA7dIyBbCRCtm0RJaOCYVtOqXXnrJDR+3qRYPEX/99dfq0475pFy5ck5jKqS+8KxiJVokmjf1oIlTHrdJNvf4xS9+IT179lSy5nq0E5k3b5689dZbbrjeTMkYl0Q6Dq7lF0WRjxFC//795dNPP1UffEg8TOpe4pXcsf+iUTOxRzRDzBNoXz2dZouWTYxxXnKID42UlZaff/6exl+5fn23apfYo4Nl/16TO6QTc+wsRNyafv1aKUFi34XoIQs6DTRLtF8mRa9fDyZC2aIuINjDst1pleRnez1P7hDee++9quF8r9/Y6TqGgU6jzqGmH84T+peIktjgT59ep50UWjp19uzZTEcLbMUHAdM+gptBnHRoGcn9iIxx2v/Pf/4zJaqduxbIBEf2bKwRjBpOuudWUO3uTBQzcYm5hMBoZ9LInbkLIk1u246nEuR2zL0PgyRP7uxqgrlxY5de80DqMh2tkMa9MXK6cXO3Ev8bb72k9WDrpuM9dnydU0aayfvvvyar105yv8UNGjuf0c/atZOd4pJHY/IwEcruVUyu8v2xiQlROwlDjG2ciVXK0Vl+++0RbTfx65lIvXNnn37XTBDTkY8c1dWl7dUOg81JiK0TfM88q4PuOjulXr3yeq+MVjY7zR0zGr8j7Pcs4KLD8jGJYiV5I/cEJPe7N27J9O0r5K2BZaTitDrSclELqT27iXw5oroMXDNDLl3EZBPYzCmHCQYtm5jtaNVsysEuS2jmmFmIKYNGzQQnIMTv+++/r37urAatVq2akj4hDFixCsnyY4HgCQkcNsvQPuLQsJPTJ5984l4qJuNEyZ3NP3r06KHaOmTt2+evt2ULYWUTi9yJR0742tde+6N8+OFbkidPdqdJDhY2ssB88sEHb8iHH70pX+X5RF9YSJngWx+5tOzZ35P3s73miLGue8HRtoOXFiLjpSRSJJ0ALzfmHeKtE18FIv322wNqu0Yz//jjt9RcApEQoRFihKh3uA6HSUTag0koaP8B7TA++PANJRraAWlD5rjh/fM//6P8wz/8rdZJfT/72f9xed5SUwGhhDFTsKkIacWc5krQLjTZDh3qRZD7UZ0g/fd//xftnO59e0o1eSZwsSnz7AhWRsfhJ1TRrBmVeHKHOAsXzqUTqQG5H1QSHzqkvc5HYEL59NP31BRDSAlGL7mcpv7ZZ+/JZ+4ck6aYQ+7e3a/tx9z05Zfvu3t7U1544dc6CnnjjT9pB0ngMgiYjgFTEXVwj8SCv+ieP5o75M68wO07B1yHMUU7AtqIGQbTEaOGt99+Sb9zJsLxzunevam7xktutPGBbsGYJ8+n6uboNXfK8l1/8UU2Na0F5ifST+iIpnjxr3R00H9AG40GSjshbf8bfJgYuScgucvNOzJ47Sz5fe/80nZJK2m7uJVGhsw2tJQj+uGODIKokOSlHJoyGjjmD8wtBAPzMdqxtaOpt2zZUrVvgDfLu+++K5MmTXJaYhupXr36/clQCJ4Ogh8LZhpiz0Qjd+z8H3/8sWr1gFECsWsIXoZN3mvu5B8xYoR7IT7QziKRyJ1JMdzwsFtDWNircUf0Ab2uOrJjYm358nGqkXm3PD7RZInoyETgqVNsPJ1x6T8LbHA9DMoEw3zSIeHAjh/YYCF+Xv7lK8bpJ3HXWahD29A4yU8bfb2U4VpMcq5x2if7ml6/zgbZKdKvfyu1eaemrpS9exc7WabuhniBEEOe6x465O7V3eded7+MOphYRcvlHITlr8P1mVDE/ZFJV9qPJsw9Bfu4HtD/KevLUAeCNwrneQZov9yHz8Pzw3vlwIGl6h2DuYPRyu3b+93vtY92HoQGxs0UF9BgoVIQoA27NvMQfZzmzFwGo6otjvy4RkCoQdAySJnya5xmz//sBMXIgu/Wa874oDNBTn7aynPlfujA0ex5vtznzZu71JWT7wdT2DnXcfl484EEbq9EreQaQTuoL9gIHRdTPvmemXQnCBxl0stnLkbuCUju967flinblsnr/b9Rzb3ZguZSbUZ9+WR4RRmw2mmHLo+fXIVwEVwasaXnz59fCRmCRnPHDg9ply5dWsmaNGzsmEkIIoZZBbMMxNq5c2fVvpmIpSOAaJ9//nkld2+W4ZqQO3mIRImmDqibTgK7O9EoPbljNvJmITqhxCL3gGyCyUovgYtgcI78wS5KwWc4PZhw8+fDdQZ5qJfzQZn0dNIyRkRMv0Zgl07P689H1kHd5KVcIJAUZAeZo1UH93JCiYjRQ2AaoT6W3ft7De4p3KaM1+E+yUeb0FQ5Jq83P1E+3N6gnvTz1E2ejGQW1OOfHxL8j00bbxtMI0G59OeR/izO6kiGiezAQ4nJz8hr+rp9HQHZ+vT0fMH9Z6yfND6DOoO2kuY/g/8p4yW97mjpwTXSy8dG7Ah1GrknGLnjGZN68og0mtdfPhpaUfKPqyZfjKwidWb3lq2H9wbhftPyemLErAKxYyNv3bq1mmAgWGzeuCNiS2/evLkbQvdzw93PVWOHeNH4McXQCbCSE7fFBg0aqP0d8w4eMZheIskdswwdhDfLYIqh06CjYLRAfq7PhC8TuZA+ZcP3GZZ4JfdYJLMXMnj5H0z/PvIoL72XyDJB+N5gVycvaOOMRAJtOj09HiR4fp6UD6gtnxjz6Zp4tDKHdb0Bk8ws9vLk/GC+9LofRbhmZLloaU9CjNwTkNy9t8zu46nSd/UUjQjZc+UkR+x70s4HJOvFa8gsGMKsglat+RwZcw5PGNwUsb0TCbJjx47347pjxsE8A6FSx5QpU1QDh6SJMonrJJuAQL6e3CFtiJjNtzmH+Yc0FjsxqUoddCqk4RZJZ8JkL23xdURKIpN7okhmhJZZukl8i5F7ApK7l7DbI4SuxxF5wkJeL+F0Xzckj7kGrf5+vaH8/n+0bfJB0A8j5HBZ8mGOwQaP1o8JhnQ8ZbD3o9lHu0cvT5vcx41nmz1MDH7IbRKfgukiWnqkxJovkeWEmtOM3BOQ3BHIM0zyDxPNmwkZ+3Newunh/OF8/lz4fFgiz/E/3jlMnOKCSSfCxCv2+IfVgzxtch88uKucOLHOyRqdWDMxiXc5eXKjzpewC5mRewKS+48t2MbD9vSwkObDFUSey0zCnQflfeRJjiHwzK71NMmd5z9+/EiZM3eiiUnCyLz5STJh4jDZvJlYNlkLRu4xCIRKiADs7WHS5X+0b1a70s5wmViE8twTLpLErcHEw6QtC5n4P5Lgnya5o/XcuBFMAJuYJJJcd4ICldWQZcgdoowky8g0/ucakKg/xzF+6ey7io2dH4tPx2WSVau4UTIZ68tFXsPXyaevl3OksbCJUAZ48nCeLf9wt9y6dateK1zX0yR3g8GQWMhS5B4u74/RkCOPsYPzvydrPFtY8OSjQvp8/I+tHP90vGY88YevQR38j9bPJ2X9tbgOe7iygIpFTXQWrFBlNSxeNpEjBSN3g8EQKxKe3JlIvXH1mty6dl0/OY7Mg1cKhIjLIYQJCUOOuDiSzjGeKmxfB0nj3w6Z4zmD/Zs47IQvoA3Ux96qLFpicRJeL5A7/4fJnU+OcblE88e1EjfM6dOnq/87nQPmmLfffvt+G7gWJI/mXqVKFdXmfeeAGLkbDIZYkdDkDpGfv3hBdh1LlbUHUiTl2AE5e+FcBoKHZNG4IUy0ZDxV8DmHdIn7QgAwSJWQvJhHiMxYq1Yt+eKLL9RFkfK4KRJ3BrMMxIymTV4WN/FJALJw4DCuyyImyJvzuXPn1gVKhPolHAHBxrgfQg5wTIRIJmX9/dEJsFCKzgbS9/di5G4wGGJFwpJ7QOznZeaOFVJhagcpMK6RlJ/aUSZuXSwnz525T/CebAk9wKYZxF8njRC9b7zxhtrM0exZ2MR5SJ9r1a1bV0MUYBOHxNGkmeikXIECBWT+/PlKsIQM/s1vfvMAud+9e1c19nfeeUc7DkwwjAYIMkboYUYKdBpEqgzb8vnE7s5KWmLGk+brNHI3GAyxImHJ/da1G7L+wA7JP66xfDq8rJSYVE1yjaoohcY3lXk71zpyT/dlpxx+5WjcmFNSUlJUM4bA0eIxf5QvX15JHAIFmE8IHDZ16lQNVcCKVMoRdsBr8QCb+0cffZQhcBjXg+gJTUAkSo7xNqE88WsgfciZegg7gPnHl6Uc5iM6ECJY0n4jd4PB8KhIWHL/9sYdGbVxvrzYu5A0mNdE2i9tI00WNJVsQ0pJp6Xj5OJFR4ahqJBoyphmIFxivRAVkrAAmE9wZSQkQMOGDTU/mDx5spI7JO/JnU6gUaNGGlkSUwqEjYskwcHC5I4wOUoZNHDaTl6iShYrVkzjy2Bbp15GC3QUXuunDkYFlGO0QduN3A0Gw6MiYcldHLkPXz9X/tinkLRY1ELaLmktbZxkH15OOiwZkyHkL+RIWUiT7eyYxERzxxyDrZtPAoZBqNjJSSNuDLZytO2mTZvqMYSOHT5PnjwaQAwCHzp0qPzLv/yLTqiGzTKQOZOtr7zyimrgdC7Y2v/85z/rZtn4x2N2oZOBsL3NnYlW5gEw13ANyN7fs5G7wWCIFQlL7rev3ZANqSmSe3Qj+WJEeWm2oIUUT6otX41uIDOSV6rN/UooeBjESFwXNOW/+Zu/UVdDn47gAcM5yPf111+XV199VckX0kVTR+NngRGaOoHFIG0mZJkQJX9Yc6de/oeAmUh98cUX1dZO1EkChEHykDsmHWzy7P5EG+gcmPyF/Nnyj8lf0sP3YORuMBhiQcKSO8RNoLB5O9dLvrHN5Q+9S8qXIxvI2E0L5fR5lzeNZL1AugiaONEXsXOHz/GJ2YTFSIMGDdI8EDCEitmGcrhR0gaO0a7RzNlIm3JMtvp6vEDwdChsrk00SMpglqEcGjp1MSrADg+pMxLAGwdzzuDBgzVPuE4jd4PBECsSltwRvxnH3hOHA1fIo6ly/sKF++aYaAKB4skSNncg1M05NHUEW7zXmjnmnCdanwdNmwlZhP8j64OwmZDFSwYvHUgbImejbK5P/djxcb/kk/ohbjxyou3IZORuMBhiRUKTO4KGfuOqI9lrN+Wm+/SE/30Fgo3UwKPJd+WjrbQZV0kIHUFLx/zjtXbyUQf3yCiBYyZafSjgSDFyNxgMsSLhyf1JCNd92LU5F43oSaPd3IP3p4/sFPifUYGvHwIPT8yGxcjdYDDECiP3GARbu48NEylo4ZxjkVK0cwgmGAgbco4kbe4Jrd2X5zNaXYiRu8FgiBVG7t8hkDH2cjxaIFQI1p+jPdjV2YKPjbTD7cMmT2RHPG7Yri/SJo+Qnx2dcJVkQpY0Aofhsonve+T9GrkbDIZYkSXIHYKGXMOTqD4tTLqcZ3KU2M+QM3mQAQMG6CQnni9+IpR8vn2lSpXSTbU5R37qYtIW0sf9kcVSgDK+DeTjfvDOweeeemgLXjqsgp01a5aRu8Fg+N5IeHLHM+bO9ZsiN+/I3eu35NqVjB4mCGYPbN5oyZ6wMZf4jTGoF9LFJk5sGQiW63qyxnOFxU3UAwEz6cnWeAieL/jHR/q58xxxfSQAGatccaVcu3atumD66/E/C6XwuccUQ4dCewiDwKIqOpPwPRu5GwyGWBEmduQ5/sQTHkbuEPu5C+dlzYFkmbJthSzfu1VOnDudwRUSssXEQWAvSBRSxM0RsidKJFo5x5Bmhw4dlIwJJ0CsGYibc6xKpTydAytN+Z98rFRlcdNnn32maZHkPn78eI07QzTI4sWLS/bs2TXkgI8CibmH4GV0HhxD3nQgtKlkyZLaeVDn/fs1cjcYDDEiTOzIc/yJJ2RG7rg8nj1/TkZumCPZhlSRX3XPK28NrCA9VibJ4dPH7xM8ZSBMyJcgXhAm5pHZs2fLCy+8oGF1IWTMLhAxq0eJ4vjBBx8owUOimEmICklb2LiDlal0BJRltSrhByiPVh8md+LT/OIXv5BcuXKpmYU8rFDFFEMeAojRQVAvZWkrBI6mTygE7ptjf89G7gaDIVaEiR15jj/xhMzI/c61m7J490ZH7JWlwLjK0mpRS/lmck35ZFhVXaXKClZ84CFbyrFKlHgtTHBCjGyNlzNnTtWM0aTZ/YhFRnQEgFjrhAxgZSmheTlHOAD+h+gJQwAwt7z88ssPxJbhOaK5c44AYIAyaPoEDsMERKAyNHRvy6est7sTFZK4NdTl6zRyNxgMsSJM7Mhz/IknZEbucuOuDFk3S/7QO7+0WdJKA4e1XdxKPhpaWtosGpkhcBjlqAczDLZsNG5MKZhb0OIxi6ClEwcGAuUZoNlD7mjf7MwEuScnJ2unQGRITD1MvEK2xH2PZnOnI/n0009l3rx5ei90DtRD7Bi8bKiHzTwiyZ0JWDR3whRQl5G7wWB4VHhS9/Icf+IJmZH7veu3JWnrEvlz/2JSY1Z9abe0tdSf21g+HFpOeq6cJJEhf/mELNHeifCIaYUl/ywgYhIT0q1cubJeB2CfxzSDxh/W3CF64sLj3gjYfo+dmCD3SM09ktwpQz2YdCB3tH1GD0zseu8c2sr2f2GzjJG7wWB4VISJHXmOP/GEzMj95pVrur1e9Vk9nLZeXnKNLi+fjagoFaZ1klX7t6lN/vLlIK8nRiZIsXn/9Kc/VS2exUcQMp8E6sI2Dnnjd86EKdEgmUTlE82eSVg0euzk7NyENwzmHGzu2M/D5A5GjhypMeEpAwg4Rj10Fphl6DjeeustbVfkhCrhCggiZhOqBoPh+yBhyf0y4oh006Hd0nGpI9kZ3aX1whGybM8W9aDxJOuFsj6mOpo3xKr1pGnL2MOZ8IR8CeTFJCqTr5AuJD5s2DAlZISOgM090MIx5bRq1UoJPNw+vGzYUYkt9diqD/MPGjqjByZlIXG0dzR0OgZcIRlFEAYYWzxeNXQs4TqN3A0GQ6xIWHJHlJidnD5/Tg6fPiEnz565nx7O54V0CB7/8sgl/pzDfx27OmSMHZw0XwbxAb9oC/lYTUpdnCMtsj4InM6AkQHHlOca5CcPZM1CJ0YJaPVo6axOZVSBx07k/Rq5GwyGWJHQ5I4Q0/2qS79+5ZouYIJEI/OEBYLEfBKtLn8OCU+Oko6E83HeC8fR6iMtXA+f4bx8QvZo8kzQksY8AIud6BQi74WyRu4GgyEWJDy5J7pwT5hw/L1B4JiCot2rkbvBYIgVCUPumDieJrmjRXuJdv77SmS9D7uGJ/eFCxcauRsMhoci7skd2zerO31MljAZPknBbg6hYjePdv5JCB0ck7xM1HJsMBgMmSHuyR0Sw5cc7xZcBpnsfNJC6F60ZTxm2EmJIGLR8v2YwuQtYYVZgEVHF2/fk8FgiC+EiR2JO3KnPdjbidYIsbIh9ZMWNGVWleLfjg88nU20fD+mcO/r1q1T98l4+44MBkP8wZO6l7gjdw+W+jPx+DQEUwx+5zly5NB4MXjTRMv3Ywo+8D6GvMFgMHwXEobcnybQluvXr38/RDCTmwaDwRDPMHKPAbgestI0KSlJ48EQaMxgMBjiGUbuMaBjx44yatQodcskLjzeO2yjZzAYDPEKI/fvAJO5BAdjQhMQG2bgwIFmmjEYDHENI/fvALsiEcWRIF4AkkeTJxaMwWAwxCuM3L8DhPZlR6R79+7pMQuZCAuMHd6nGQwGQ7zByP0hIEQvG3uw7Z0HhD5o0CAlfFslajAY4hVG7g8BK1KJ147dPQyiNjZr1kwnWA0GgyEeYeSeCVgwhF87BB8JYrzg94793Z6XwWCIR4SJHTFyT0NKSopur4eWHgncIDHNsME2q0cNBoMh3mDkngkgbzayJhJlNBDIq0KFCrqjk8FgMMQbjNyjAELH1j5x4sS0lAdBbHX2UCVSo8FgMMQbjNyjgJjpbJBNmGE8Yojl7vdc5ZNAYuyDymrVJk2a2GpVg8EQdzByjwJitxcvXlzNLtjdmVitVKmSlChRQlerklarVi0pWrSolCxZUqNEGgwGQzzByD0K0M63b9+uk6mYXYjfThx3yHzq1Kl6jBBjnpWqprkbDIZ4g5F7jMB7hjAEkT7vBoPBEI8wco8RbPGHff3IkSNpKQaDwRC/MHKPEUbuBoMhkWDkHiOM3A0GQyLByD1GGLkbDIZEgpF7jDByNxgMiQQj9xhh5G4wGBIJRu4xwsjdYDAkEozcY4SRu8FgSCQYuccII3eDwZBIMHKPEfFI7nxXBw8e1EBmBoPBEEaY2BEj90zwQ8l969atkpyc/Fg31SamTd26dWXBggVpKQaDwRDAyD1GeHI/duyYHvOcbty4of+D73purVq10s0/wmUAZH/t2rW0oweR2U5PbAPINfPlyyfjx49PSw0In1jzBoMhawN+CIuReyaA3Js2bapmkGXLlknjxo2lZs2a0qVLF91T9ebNmzJ//nyZNm2aPkgiSxJJknJ79+6V7Nmzy7vvvqskT0RJSH727NlSr149DSncu3dvjRsPabM3K3u3tm/fXipWrCh9+vS5b3o5fPiwdO3aVapWrapl3njjDZk8ebJec/r06fdDFBNrPjU1VcsYDIasB0/qXozcMwEk3axZMxk3bpwSbsOGDaVXr15SsGBBJX3IHQ2aOPCQLOfQqgkdTIeQK1cu+fTTT6VHjx6yceNGmTlzpoYQbt68ufTt21eKFCmipA3B03G89tprej06Awh84MCB2o6OHTtK7ty5pV27dmqS+ad/+icl90OHDmnn0ahRI+1Uhg4dKvv379cyBoMh68HIPUawZypkWr58eSX3FStWqBYNkb7yyity8uRJNa8MGDBAsmXLpkQ+b968tNIibdq0US3fg00/KleurJ3GgQMHlOC/+uorjQ/ftm1bqVKliu4C5fNC/piESpcufd8MA6G//fbbkpSUpOW47oQJE+TUqVOP1bZvMBgSD0buMQJyxxRSoEAB1dY9WaNZ169fX44ePar5Fi9eLL/73e/ks88+k+PHj2sawF5PGcwx7NGKhg9hY3rp3LnzfZv8jh07tF7+Z1s/wMggb968qvGXKlVKrwHYAYoOAXJn5IC2TkfArlHdunUzs4zBkIVh5B4jNm/erJo7Wnu5cuV0f1XIE9PHvn375M6dO+pJg9mkWLFiStxjxoy5v0sT5hcEEgbY69nGb926dVoPdVD+9OnT0qlTJyV9T+50DJA7ebj2qFGjNH3Pnj1qskGT5zp0HNTF+fz586sWbzAYsiaM3GOEn1DF5o6mzq5Mw4cP18lOSJQJT/7HnML2e+QrXLjwfS0bwi1UqJC0bt1aN+CeNWuWjgSwnY8cOVL69eunadjcIXbyeXJns+6cOXNqx8BEKVo/9nna8M///M9K7hA/55iIpYPBnj9nzhwtbzAYsh6M3GOEJ3c8XzCPYFvHfMIEKX7mkPuiRYvUFg8g5kmTJimRA+zlkHD//v21PPZ0vG6wtVMPni+UxdRC54BHjdfyly9frpOmADs75hcInA6E+mjTiRMn1P5PXUzmMmFrWwIaDFkXRu4xAnIP+7kzeXrmzBklde9zjmkm/PwwlZDmwf+QN/k98EnHFENn4PMyGRqeEOV/b94BmF/Q8KmLdK7p/eVpE+fC1zUYDFkP8EJYjNwzgSd3iy1jMBgSAUbuMcLI3WAwJBKM3GOEkbvBYEgkGLnHCCN3g8GQSDByjxFG7gaDIZFg5B4jjNwNBkMiwcg9Rhi5GwyGRIKRe4wwcjcYDIkEI/cYYeRuMBgSCUbuMcLI3WAwJBKM3GOEkbvBYEgkGLnHCCN3g8GQSDByjxFG7gaDIZFg5B4jjNwNBkMiwcg9Rhi5GwyGRIKRe4wwcjcYDIkEI/cYYeRuMBgSCUbuMcLI3WAwJBKM3GOEkbvBYEgkGLnHCCN3g8GQSDByjxFG7gaDIZFg5B4jjNwNBkMiwcg9Rhi5GwyGRIKRe4wwcjcYDIkEI/cYYeRuMBgSCUbuMcLI3WAwJBKM3GPEli1bpFGjRnL8+PG0FIPBYIhfPBK5X7hwQVJSUmTHjh1ZSnbt2iUzZ86Upk2byrJly2TPnj1R8z2LkpycrN/52bNn034FBoMhERAzuV+6dEmWLFkikyZNkmnTpsnUqVOzlMyYMUPmzJmT5e59ypQpMnnyZJk7d64cPHgw7ddgMBjiHTGT++7du2X69Omqvd+6dUtu3LhhkgXk5s2bcu3aNVm6dKmMHz8+7ddgMBjiHTGTO6YITBMMzy9fvqyafKIL93H92nXtrO7cuSN3797Vz9u3b8v169efmfv8oQLJ79y5U0aOHJn2azAYDPGOLEvuN647rfTWTUk9lCorVq6QWTNnydTJU2WGG50sXrJERyporGiuly9lbZKno8P+PmbMmLRfg8FgiHdkOXK/cvmKaqL7U/fLiJHDpVHzRlK1YXWpWK+yVKhbWSrWr6zHDV163759ZevWrZr/6tWrUevLCmLkbjAkHrIUuV+5ckW18cXLFkv1OjWkeJWSUrtjfWk3upP0nj1ABiwcKv3mDZIuST2kce9mUqZOeSlbsZxMmDBBLl68qCQXrd5nXYzcDYbEQ5Yhd4gdmTZzmhQpU0wqt6gm/eYOkolbp8rk7TNk2q7ZMmvffJm9f4HM2DNXpiTPlGErRkvjvk2lYMlC0rtPH3fvZ7RziFb/syxG7gZD4iFLkDvthdiXrVgmJSqUkJod6si4jZNkasosJfHJTvrPGyK1OtWVso0qSsM+TWXoslEydccsmbZzlrQf3VkKlSoiY8aOkfPnz2td0a7jhethxvFCfj4TdcRj5G4wJB6yBLlDrnv37ZVGrZpIxWZVZPTa8TJlR0Dq4zdNdqReT379h9/K//ybn8h//8l/l5/8v/9LitYoIZO2Tdd8dADNB7aWyjUqy6qVq9Run9kzIP3MmTO6onX+/PnqG79o0SLZvn27nD59+n6eyHLxLEbuBkPi4Zknd9qKvXzKtClSqmZZ6TG9r5phIG4093ajOso//utP5T/9p/8k//78L+W9HNnk57/9heQvX0CStkzTvMio1eOlWvMa0r1nDzl27FimE6xMvvKsqlSpIu+++64ULFhQ8ubNKzlz5pSuXbvK0aNHE860Y+RuMCQennlyR2s/eOigtO3STmq2qyNjNyTJpO1OI3fa+LgNkySfI/HnnntOfv/6izqxOmbdROk6qYf0mNZHyT1payCUaTeyk9Rv1kA2bNiQqfaO6yRL9vPlyycVKlSQbdu2qRbfuHFjyZYtm2rz+NUn0jM0cjcYEg9Zgtw3b9ksVRpUk7YjOwZE7bT2abvmyKCFw+TFN/4of/GXfyH5KxaSaSmzZbpLxxSTtC2d2D25D1wwTGo2rSXTpk+TC+cvRLW9e3IvUqSING/e/L4bZf/+/eWjjz6SWbNmBb7zRu4Gg+FHRJYg91WrVkmpaqWl98z+amKBrKfvnqvH//zvP5P/+//5aynftJLM2jv/PvkjGcjdHY9eO0GqNKsuw0cMl3Nnz2VK7qzmxBzz5ptvSrVq1VSD/+STT6R27dqyf/9+JfzIcvEsRu4GQ+LhmSZ3VpZCwMuWL5PilUvKQKepY46BrGekkfs//fyn8tf/479LxRZVZGYauUcTyH3C5ilSqVlV6T9wgJw9czaq3R1yJ4pioUKFJEeOHNKnTx/p1q2blChRQooVKyYrV65Um7tp7gaD4cfEM03uCOS+YsUKKVm1lPSbN1gmJ6dp7rvmSL+5g+VXL/5W/vN/+c9Sok4p1dwhcToA3wmEyR33ySrNq8vgoUP0OWSmuUOEhQsX1vjv586d0wndzZs3y9dffy0tWrRQr5lEmlQ1cjcYEg9ZgtzXrlsn5WpVkK6TewXmlm3T1Id91Opx8nG+T3VC9b0v35ehS0c57X2ejF2fpN4xkeQ+auU4qdWijowdN05JOzNyx+YOuRP/HRInjUnVTz/9VOrXry+nTp0ycjcYDD8qsgS5796zW5q0aiJN+jRX0wpEjeAK2aBXE/mv/+2/yv/93/9achT7Spr0byG5S30tZRtVkIlbgtWrkPvk5OnSe1p/adC8oSxZvETrjvYcvOZeoEABNcsMGDBAY9QUL15cPv74Yw2bTJuidQzxKkbuBkPi4Zknd9qKGWTIsCFSsVEVXXnqCRuvmOErxkjecvnlf/7N/1IN3kvu0nm1A1AzznanvTuib9a7pbRq21qfBeQc7TlAhIcOHVI7u/dvxxxTvXp1dYMkHn4iETti5G4wJB6yBLlDpmvXrZXq9WvoSlO09/sEnzxThi0bLVXb1JTPCn4u2XJ9KF8UzSmthrYNNPztjuBdJ9Bv1mAtP3HiRA1BkNkiJoRrQoho8QjeMUiiTaR6MXI3GBIPzzy5Iyw4IiQA5FS+VkXpNL6bkrufXOVzaspsJX3cHZO2BpOq2Oan7ZwtQ5eMlhrNa0nHjh3UlTGWODGcj5Ro+RJBjNwNhsRDliB32ov2zh6gPXv3lHK1ykvr4e1l/MbJMp0IkE4zVw09jfA5xpuGSde+MwZKtSY1pEnTJrJ506ZMzTHPshi5GwyJhyxB7ogn+NQDqTJ48CCpUKOiVGpeTdqP6SLDl49xmvoMmblnnkzfOVfGr5ssvaf1kwZdGkmF6hWlfbt2simN2JFo9T/LYuRuMCQesgy5I7Qbk8rpU6dl0YKF0qpNK6lSu6pUrF9JyjQoL6XqlZEy9ctL5QZVpXrd6tKwcQPdqOPQwUMxmWKeVTFyNxgSD1mK3L2gfXuSX7NmjYwePUojNrZt21Y6duzoNPvBstCRP14vPm9WJXbkaZI76wlWr14rCxYslkWLlpiYZCFZ6n73i2TWrDmSkrIz7Y2IHVmS3BGvxUNct27ektu3bsud23fk9u3bGrUxkb1bHrc8TXJPSdkuSUlDZcnSJEfyM2XV6ukmJllCVq+eIStXTpM+fdpL3bq1ZMuWrWlvRWx4ZHL3boDe/vwsCPcTTaLlzYqCOyfxcp4Gue/cuVU2bpop38ped3TMyRETkywiR50clm3bZ0u37s2ld++ukpy8w6XFhpjJfe/evTJ16lR1BcTrJDU11SSLCBuMrF279imR+zZZu266XL/BjzrVkfx+E5MsISIH5M7dPZK8Y65s2DhNVq6aJP36dY+Z4GMmd0idl3vu3Lmqwc+YMcMkiwjf+eTJk43cTUyeoHhy37ptlmzeMkPu3j0gK1dOkj59usnWrdv1/XgYYiZ3r7nv27dPtbkDBw6YZBE5cuRIXGru/PjDx5mlPUlxapC2wUu0PCYmsQi/H0/u6zdMc8cHleBXOQ2+Z8/Osn79RpeWOWImd2zu7CJEbBQm2JhsNMkawiQzG5DEE7kHJJrqJCDQgEzTj5+WhNuR/r+NOEweXfj9hMk9SDso9+4dkHXrp0uvXp1l9eo1Li06HoncH4e3DGWZpDMvlMSRp+ktE43c+dFfuLhZNm6aJidPrdN0kUNy8NByWbR4lEtb744PpuX1hBtdy4+W7uVRynHMi7gjZZ5MnzFIkib1kxkzB0lKyly5e4/J4O9H8Jm1wUtm53069x8tPZyWfu67r5eZRCvn09IlYxmThwvPzJP7ho3T3TG/84NODunntm1zpX//HrJmzVp3/CCeOLmzcQUeN4wAop0PC9fxXivRzps8GYkncg9I4qBsT54t1auXkOXLx7rj47J79wIpX66gtG1XW65d93kD0g+/EOkvDmlIUF+YfNPL+Tp8p+LTo5U5JFevJUuHDvUkd262VCwtFSsV1f8HDGwtd+7syZA/KBPtuuHj4Hz063Hs2xJuo8/rJciTXgYhf/CZXl+4XPCsgjQkXIfP548jn4kv56/BOV9fejmT7xaeFeS+ectMWbkqyb0DKXLjxk79vHlzt3svd8rqNVOlW/eOqsHfu3fPlUnHEyV3fMchiS5dusiSJUvUxY506guLz09HwMYW/prhc2GJTM8sn8n3k3gk9/UbpkiBAl/IwoUj5fCRVVKxYhEpUzq/7D+wRM/zcpw7v0lSds6XLVtnqfZz7PgafVmo49z5zU4bmuo0/dGyZ+9CuXV7V1rdqY6I98qB1KV6bs3aSZqX9Nu3d2v9pK9dN0kuXd6mZYIX8ZBcvLRV6tcvL7VqlZZjx1brcfceTZTgd+5a4PIcCb24qXL8xBo5dXq93Pt2n0s7oPk5vn1nt0vbL2fObtTrL1o0SvbuW+yuH7SdsrdcW/btXywLF410bZmsZUnnxT+Qukzd57a6++a6pHGOzmfL1hmydNlYST24zD0LRhRB+69c3a7PIXhWs3UUdOPmTjl/YbN7vivd6GOf1sEo5PSZ9U42aJt5Vnv2LpL5C0a4sjP1Wjzjw0dXaRu2J89R4f+UnfNcG3bcfwYmDxe+G34b/HYHDe4gw0d0kREj02XU6G4urbM0aVJN2rdvI0eO4DqZjsdD7hyjXUeTUD4WB23YsEGqVKmik7PYctHKwz7l4f9xuWzYsKGMHTtWy3MuXB9CW8jr2+TLRuYz+f4Sj+SOa1iRIjmlb7+WUqNmSSlYKIeSR6Alkm+/DBzYRt5440/y6afvyksvPy81a5VS8qSOdu3rOtLNLnnzfSY5c33oXpbOSkpo2ANcubfeflly5fpYCrl6R47s6kabm2XQoLby2WfvSd68n7o635PxE3qlEWSgvUKwDRpUUHKHEOlcevduLsWK51Yixmc5/cU9IVWrFpcWLavLzVusPjwi48f3kKbNqrpOaLUj22Rp1ryaa+PHrhP7XHLm/FBGjeritLNUJd2evZrJBx+8IfnyfS5ff51dxo7roUSwfsNU+Tpvdvnwwzcle/Z35Le//Tf3zk2Vc+c2Sdu2teWTT9529/uRK/Ope58Hu5ee53nUkfNwee+9V+X991+Td975sxQp+pWamJYtHycfffSWu58VLt8xvY969cvJ6DHdlNhHjuosH3/8luTP/4XkyPGBtGtXR3bvWSh9+rbStBdf/K384Q+/kS+/zCZlyhTQc/57DBOZSebC7/La9RTtnOkc0yXZvZu75PDhlU7JmeYUCtaBpOPxkDty/rxcdOfuy7lzcslp3uE8kO6JEyeU4PG44RgXy+3bt2vaggUL3PBi9f1t6Nj79LPPPnMvSy1ZtmyZ5g2bc9Dsd+3apeVJpwx5tm51GpCrw0j+8Ug8kjuuYZ988o4jopcdgfyHNGxUUbVMT+5omr37tFBCP+S0UDTounXLypGjK7U8WjPa8KbN06VDx3pSqVJR1VaXrxgvHzsCnDipt/s97ZXLV7Y78t0lc+YMleKOpCdO7O2UjB2q6V66vFU1WV5ArkveevXKKUHWcdcqX76Q+/91d+2m+oKGCU3kpJQqldcpOsW0TRcubJFevZpLzZqlVKsmDyQPmW7aPMNpZnVcG4toG+fOGy55HKHPmDnQtXGPa8s2d+1tWma5I2PyLVk6xo0ylsorr/zBvTtjZdbsIVoGTZ966VTKli2oWjhmrWnTB0rJb/LoaGba9AFSxXU8aPGMTj7//D0ZMqS9PtNZswZJuXIFnTaOHXiq5MmT3WmPnVw9m127hklh1+FOmNjLjcoPuOe0T1q0qC516pTRzu7atd33n5dJ7BL85vntR5PD2nGvXDlXjh8/7o7T8cPJ3WnTZ3akyJHxE+XwyNFyeOw4OTzGyagxcmzWHLkEGaflR3PfuHGj7kqE/zSaeO/evaVkyZJSo0YN92MvpbsWTZo0Sa8xfPhw1+v/wWkoH7iXpp76WxNrxGvrkDuEQ33EiMFlr1WrVhojhs4Dsr/fTpPvLfFH7od0MvXll55XTbplq+rut5NPJk/p637EvAwH3ec+6eFItXGTynLl2nYZ6LTuhg0rOCJdpd4GEGS37o2la7fGSrCFi+TQOvv3by2583ySdp3DaXLQdRTN3W/0GyUpyNB3Iukv4CElQswyhQvn1LZMntJfO5SKjmx37prv8oTNMielQoXCOgLo5bT7wYPbyTffOLJ3pMo16FBmOiLt0rWhdOvRWO33xYp9JevWT5bu3ZtIpcpF9XrBKkZvzz6kJpzqrp1bt7p39dxG1/m9oiYTOhg08mHDO7oRQk9tJyRNB0dbIOQKFQtrx7JoyWipVbu02nqplxEDJjC07i6dG7oRRVUdPYxzI413331Fnw2aPKMovoeRLn/wXZ2SzuR3oxE6wmCFsWnsj1P4fk6f3uA69TmPn9wv37ghR8aMlx1lK8ne1u1lf4/esr97L9nduLkkf1NWLp45I5fTzCl37tyRpUuX6kbREDc2+Dp16sirr77qhtADlfhLly7tfuTfqElm8+bNuk1do0aNZP369W74cVgJXa/r2gB5k6dy5craObRu3dq9AMXU5OM7AN9Ok+8vcWmW2TBVvvwim4we3dX9DnY6Im/ifjv50kwzJ5wisUu1+Vata8it23sc8bRy5F5RNXbsxe+8+6qaNjBjoNVjflm/fooMGtROTSCQF6QXENJBJa4qVYqrLR7SCkg1rIkHZhmu0dJpxUE7z8rKVRPUXDFmbHd3fDKUPyD3L3N8KEOGdtDzHFerVlLbiJ06W7bXZeTILtrpdOnaSDuN1WuSVMOHmM+dx8/ZtyUg+HGOuCF3iBgT1Ntv/1nJvUfPZvLWWy+rlk2nM35CT5k3f7h7nyDdE2kjm3I6GY3WX9eNQLC90yGdPLVWTTlt2tbW0cjsOUP0mtTx5lsvadkpUwdI0qQ+MnXaAL32PbXRH5OOHetLE9fBYqIKm6VMHo/86OR+eOQYSe07UC6cOCFXbt2UKzdvyJnkHbKjfGW5cOpUBnLHvPL555/LiBEjlDSwqUPmu3fv1usQkTFXrlyybds2XfbOxtJo95SPtLnTDtLmzZun2v0LL7ygm1GzZ2o0+7zJ95N4JPe1ToNlohIzAeQE6UKOjRtXkmPH1iqhFS2WSyYm9dbzaOg60Xl8tdqPf//737gRYl/tDJo0rSIff/y2mhmw5X/11cfSp28L2ZGyUEn2+Im16mJZtlwB6dOnpXsWc3XykHoCM0MwmoDca9Uq5X6zX7mXbbx2HO071JXcX33iNOrRLs/x0Et5SjXx2nXKqJYOWQ53WnWNmqXk8NGVbiSapCYVzETYvhu4juoT10Y6oJUrJ+h8w6DBbV37gzZirkneMUdJGbv3xUvblNz/+Mf/kMVLxqg5hjKTp/Rz7/IS7TB2pMxVEt69Z4F7J993z6+IpLhraWdXOIdOHDPKwZbfzXUuf/rT7+Qbp5kH8xbH1DSGqapP35bu/V2sk7cb3fM7c3aDPg/uqXXrWm7UXVZHEUbuj19+fHIfNVZS+wyQ88eOyWVHBJedRn1623bZUaHKQ8kdzbtp06ZqVsFWjivPqFGjVFvfsmWLmlnQxCF3NPZITZx24HGDnf6tt96SX/ziFzr5Sj4j98cn8UfuqUrKjRzhrVo10R1jOjkkCxaOVJv3pMl9nabaVG3uaOmQO1pmH3d8xh3fdFo5poWyZQtIA6dp16hRUs0n1IlHythx3aV0mXxq/8asA7Fjz5/g6qhatZja8TnHZCPEF7TroGq9Pd118+b9TDVcTCfVq5eU0aO6ut8qy8XDZpzj0qZNLW1jMEo4JLNnD3GjieZy8vQ6JUhGAeVcPXRY1aqV0GPijNy6tdtp9J2lQsUi6nJJOto0mjOaMgRLe/DyKflNXvW2YF3A4CHtdPTBvTKZyzOBqBvUr6CdXcmSX+v9lnIjoHffe0XdOilHW7c4In/+hV/rcw2+g0M6OpoxY6BUrVZc21G7TlnV7gNTTxD8Cq+Ofm7UFHjzHMpATCY/XJ4IuR8aPFxt69dcXuTcgQOyo2LVRyb3kSNHZiD3IkWKaKx1SBzvmvC1IR1irmO2KViwoGr55cuXV/OOd7M0+eEST+Qe/KAPKCGeciQY+LSThnvgLvcDXyMnnKaNacO7KiIXL21R04Cf2Dx/YZNq6WiwaOCnHZkGJJuqmvTevYuc9jxJtdOz5zApHHBtSJF9+1362kk6EXv+wpb77aENED0a6p69i1UDprM4dHiFlgsTuy9DR0PdgZvhfqeUbNPj23f2aB46prVrJ7s2Tnfvwkqt+/qNoI3UiQvi6tUTtY24TdIhkCdYNIWP9F6dYwiuf0AngdGu16xz7Xf3ffbcZh3xVHUdB+aogwdXy67dCxw5L9GRCx0Fz/HqtV2SNLmPZP/kHUnZhdmLzix45rhtHjy43H1Hk/W54CoaPMfguV+4GDz3oE0Zicnkh8uPS+43b8ih4aMkuVR52dehs6T2HeC0+P6yu2lL2VawmFw4ffo+ud+9e9cNTxfJ22+/7X5Mg5TcsbmXLVtWY9dwbcwy77//vhI0i50aN27shswfS4MGDWThwoWaxvXRzNn0un379mrDnz9/vppy8ufPL5UqVdIYODah+ngk3sg9+FFDHhkXxaSneQnnh5ACUgqO0/MEJgT+D+oK6vFp6fUEeX1aenpYgnTK+snYjBOvD+aN1kbfjvTrPNhGn+bb5Mum5wnykSdcxteJHNYRCSOe1EPL3THkQP4jqn1v2DjFkfNWHV3kL/CFunV6f/f0+sPPKtr1g3b5Y5PHKzzvH4/cr12VU+s3yt52nWRXvUayu0FTJ01kd8OmSvp4y1xOM6dAEsQowS6OKQXzCV4zEydO1IZ5E0v//v01YBXkjAbfrFkz1ciJTOi9ZSB3ygwdOlRGjx6t9eONg/29Z8+eGn+c8uG2mnw/iUdyj2cJCM+TbTrRxaOEyflbYTGVT6fth3U0MnZsd7XVp6/8fbAek6cjPyq5X7oYmGauujyRcuXe3Qwkgd0cwgV4ypCGqQVzjXdtJJ02eJs5xx6RZhn+ZzSAOcenk4fyprU/Pnma5L57d3JCkbvXYDGJBCEHgtFEtLyJIsxZBJLY9/Esyo9L7ibPvDxJcuf3xwjs6lVGXVdk/YbVsmr1lKjkHtYgAxtwRi05INZ0yZieuVYdmf+70tPPpap9GU8dVsfiWz97zlA5emxV2sRrZJnI4+h1RxN/v5FlfNp3nQunR5572PloadHyZzwfLS2jRDvv06Kdi3b+u+S7fiPh9ESRuCR36kA7Rx61PvKjmZsf+5ORx03uN2/ekgsXLsrJkyfl6NFjumz62LGjcuTIYdm7d7ds3bpJ1qxZJkuXEmFxjGzcPFNjqYRfwOCFDAg6+PRaZUCi6enp4l8GzrHkn/gtmCTS6yTfIZ10ZaLQ5/XpTAqmhxsIv2BBWVaa4i2Ch0rTplWkQ8f66smCi2MwuevbgHhC4ZPjQOPn2NebmQR5D+ozCdrj2xm0I6ME9fk8t+8Gz5Hj9PoeVo68PJO9959X+rkgX1A33jFBnT4t/TlSxt8755CM1wo/A/9dZ2xjZmX4jP7MfN7g/wfz+uulP8MgbyIJ7Y4rcocsMMFgV2exkt+X1RM+5zO7BoSOH3tycrJ6yhjB//jyqOSOaez8+Qty+PAR97vZqyEiAtkpKSkEr9og69Ytl5Ur58vSZbNl2bJZ7nOGLFsxQ9auI8jUItm7b5n7flc60l+jy/ohluDHHLykeJKsXjNJPUCuXU922n2SbNs2O+1FPaQeMFMm95PRo7vJqNFdXf3jdIn+/gOLZcKEXqpVswAK10L/knCdpUvHyNCh7fU8ro54rly9muzaNk6GDuuo6evWT1HPHE8UkAJBxfA7z/P1p+pbT7vPnNkoRK9kwZUP7BXkP6SBtPBygfyQNWsnaxsvXtxyv95I8STMveP6OGhwOxXCBLAyV9vv6sCVkxWjLGg6emy11od/v973wLauwxzojokDDtkdcqONjRqegAVTlCOMQBBK+YDccJ0gPvKDh7TX50i7Sb9+PcURyngZ565FAKspU/vJwcPEnwlcQllsRbwentfMmYP0GfIs+Z7Gjeup1xnjhDrnzB2qZWgr6Yx6Zs4aLCdOEsqWNrKt53J19eQ7GzO2m2vTKB0l7dgZeCWFO3+eER5C+P/v3r0w7TdxRD2c8I6iHeRlJTDt5hnyTLxXlK8nESRuyJ1ykDGhApgkrVatmq4sJWTAypUr9TykzSpWYsN4uzvpXph0ZbIU7xkmWL3LYzgPEr5uLOe9ZFY2Mi0rCeTOMx8/fnzar0H0mUDe7OeIZ9OGDevTZK2sX7/Kkfcy9z0vdC/5PCezncxSWbd+jiPURa5jX+k09/Xu97RJzqhsVDc+lqmjVQcaONoUHifpGlXw8qXqgiPCAeDDPX36AKlfr7wjtrFKciywmTFjkPqbN29eTX278TcPXAeT1N+9f/9WGraABUy48kEO4yb01CX4nTrVl67dGimZ0CYIoHLlohp4q0uXhhoWgKBN6WR9UMkQv3YNd+CILFjZStvRaINoiun3cEKX5bN6Fo0ezxQWZBUvnseNXPARDzRTnz+93GGNQdO7dwuNhdOtW2Pp1LmBzF8wUgmMWDIsosK1sV37Oho8DE8YPGI6dqynvujdujeROnXL6MKjoMM5oaRXsOCXUrPmN9r+0mXy6+Ip2jF5ch9dbEX8nabNqqh/P26euEjWrFFKwyUQPgGfexYsseKVeyL8Al42hCYo4+pLch0enQ9RPLt3byzflMqrQc9atqwhk9w1WFDVvEU1XWhGffjiE8AtiBd0QjvMHDk+1O+T9Q0EIaPdePDgRx8882BUwXPCf59VvUOGdUgj/vOufTV1tSxBuIJnUl+q1yip98aaB1b+BnkTR4OPG3LHloq7YqFChaRw4cIacqBHjx4aC2bOnDlaL2EJIH1cGf1EKySPGQZhghWNHaJh6zdvnvHnvYQ1+mjnfccRFn+t8P1xHJmWlYT7JigbbqjE9+ndu5e0adPGfXd9ZNr0sU4Tm+00x4WyZdsC90l43Xmya/dSOXJ0jfpR89IF0ewCQUND6w0v/sko6cPu6D/mQJNbszZJoyG2ci8sxEuckyB+CeePOQ2wqxQvlls2OwLA26N8hcKubTPdd8nIYaZqhrz8+fJ9JtOmDVCCLV++oJIF/vMEY7pwYasupa/mOgYW9KBJ0hl5f/nApBJ0NviHFy+RWwnJa4YZ2xw+PimNG1fWxVBsLMI1iQGDuyFaaLT7D+o4oh0YxIh2fvbsZvVtV3/7bw/oCtWqriMbNaqru59Fkj37u04jHSArV03UIGvcJx0cxF6i5NcakIyVssvdqMRHiVyxcoIuwGLegLUB+VwHSQye06c3qtbO4ifau8fVTwgEOhe0Z1baFimSS5/RvW8Pqn899eJlU6LE17o6lnNXr+7WUQSdG/dPmy9f3q0jLMIjLHAd1d79S/Qa5SsUknUbpmgbea60BUJnUVmRorn0viDsBg0ruOc239XDQjF+Q8f0Wo0aVdIOA9/7S5dSdHEWnSKjPUZ9xdzvg+dD0DNGDDyjIHZQ4kwc09Yfl9zd8eWrV9SfPSyRIX+pm6H973//e5kyZYoSNfURM4ZokYQgILYM52vXru00rD5OA1yn1yU/Pu24SRIFEnLnHG3BfXLatGm6MAoC6tatm3YOaJwQNvXTkVAn5akr7DNPHgiMergWi6cgdMpzDa6F+YhOIXw/WUX8M+7QoYMsW7bUPeupTqMb72SUTJo01GllA50McNLXHffR5e6QHQuF7n3LkDggwDBxf5dE+yEjwflDQjx1ltY///yvhKiFLOYJtGTOn1ATCpo05AdREW8FE8ms2YO1M0DLbN6ihuTOk90RR1slTSIaQh5BrBbqOqYEAhESaEzkjBO08YwvP8cQCIG/iFcThBMI7iHa/UDugQZaSaMxEsWxVasabnRRQjXYgKAyao/+2Q11miikGsS4wYMlaA9Cp4Xmi8mCjpSRCxEeCeT185//TM/RqTAnADliIhE57RSrIVLUHScnz3Hv+ULVzqmDju3NN1/W0REEi1ZLaAIiXpK31Ddfa0hiRgsffviGxvK55To2zFGs1K1Vu5Qj/4baXmLcHDy0TOuhYx86tKOOXALN/KjOVfzDP/ytNHLtY0XuN+6ZE+ogaONJ6dGzia7WxSS1zX2PjC7Wrp2k3yMhh+m8S5fOryGTGQlSL9o/8XkYuaHtv/D7X+vvgJEFgdKIynnkyCpX/xk5dHi5hodepb8jr2Rk/juMF6GtPy65X7wkF33I3zNp4v6PDPlL3QT1+vnPf64xZWgMJAppYl7BBo8/+0svvaSrTocMGaJ+8F988YX78XzofnQ1Zdy4ce5Glqv2j4875SGdV155RWPUYO559913deUri5zwi2dkkD17djXlVKhQQV577TVdFct5iJ37oQ10ECyoYq9YjnGxJCgZbaKDgOzD95NVhPsO29x5LtevX3Md4jmdFD1+/IgcP4YclmPHDsnOnVvVnj5jxlinYfZ3mmRvJz2ddNft59AO0ZR5ye46DRgt2AvmC+9ZEhBjxpcsSDuoLyEvLqYSog4SwhbTTkB2J9UsQbRHVnSipdeo+Y1el/jtQ4a2d+1eqxt+QBL9+rfS1ZVonmibQR0M8Y+qjRZNGdNMQKbpE4rhF4x7adCASIuF3PPAzu1JN1XvB0nPf1JD4WIqImQuYQGwO0Pu2ImjEUtw34fUxg2JMVcQdEJcg3OH3XtBuN+iTitNUhMIdUPuSUl9HHG9pHZ94sgwOti3f2maKeOs9HWafNFiX6kpg7g5kPviJaOdFrtKRxR0cCxwQuNt376uki/5KmMaclo9HRt28BIl8+j3QuAxiBg7/hmnFWOeeeutP2s+niGdHyti0aoD2/5RjcFD7BrahmLAJx1YYP46qaMn4ubQBkxynvj5/gl4ttmNQjBBMRLj+7zsvg8mtYl+yZzHvn0r1bxEPTwbzHYlSuTREQ4dDp3q66//UTtInmn42cez0NYfjdwv37gux2bO1tWoW3J8LVu/LiRb8xSULTnzys7a9TWuu1+hCmGioTdv3lzjwPzud7/TUAMDBgxQ8oTgO3fu7DSOvLJp0yYtg/39nXfecV9S/fvaM9o0cd7R7DlmFWu2bNk0JDBtg+xz5MihESPR4MlLCAPs+CyK+uSTT7Qj8OTOdRhFYDIqV66cmh2Y8GWE8Prrr+t1MCn5vFlNPLkTtycW3Lv3rZbhGZ51z5gJ8NOnT6kcOXJItm7dIIsXz3SkM1xGjuzrNEsnI3s5gugjs+eMcC/vdKdJrVTCZFMCyCD9x5xO7kRJZDiOuQCbKRtH6KTdqknyZY5s0n9Aa5f3rBIztlUmSL/M8YFqv2h2kB7BuTBToBGigSKQEDZlXBgJH9DIkRnEi7ZKEDG0PCYaPQEHnwdk0aKRbhTxvnY01EE0RUYNRHzETOBJAzJBU/3Hf/x7p6R8qZObjBwYURCJkYBjED73D9Gn3/tRJSFGCAQHw/QRyEolQuYPAlNPEJYhR84PtWMj3HCePJ84ZamDmlooQxgCzGMnTq5zylM2p/QU0tWo8+YN0w6PCUbCCFSuXEwDsrG7E5PNPPMJE3tKqjumI6GjvH4zxY2G+2k9ECxhh+kQmYilLUVdp/n887/W4Gae3JnYxYbPc4a8ly4dKx988Lp2EhA65hFMSEyCs8UcnQyjwm+/PaYdcUk3aqDTIT5PMzcKOuo6VEZdzF1gs8dERwfK/8GE6hXV5KtULaa/KTqQEiVyu5F8a0k9uFxHTvnzf67PnJAJmL0WLybYW3zHw/mRyf2GHB4xWva16SCn1q2Xs3v2ytnde+TY3Pka8jccWwZB08YEQghfVqoSGOzll19WjZu6IVLs8Zho0BDZsCNfvnyqNUIYtI+NPb788kvp16+fEi6hftGuCWEAkpKSNCQBGj7mhI8++ki39aMsmjxaOxo5pOMJm0/IiC0AMQ1RF/USB4cOAQ8Qfw9ZTSI19x+Ku3fvaWfK7wiXSH4PyLlzZx1p7HMd+2pZsGCmTJ48WoaP6COr1kxSIvIaLZ/bts/Rl/rgoRXue03VCTc2tCDGCSYPNEqIDDJBk+zStbGOFiZP7qtEV9CRKhowk4sEGuMlQRtmMvKr3B8rSTCxCtGgRWLS+OqrjzT0LR4gVxxBeLIOXrID2rHMXzBcd15ix6Mvv/xAQwlDfBlNNSfcfXVUTREyxPxDuzt3aaik088RThDSF++NMLm7UcC9A2r2wqSAZk4ES8L4YmZo6Qhq/cYp7nkcdN9ZirYZj5a79/ZoeF9ML8xT5HJl0MAhtXr1y8q//us/uva+KwUKfKmTln/84+/UzAGh00kxF0EYZDb7YJ4CjZ9REmYY4ukT/56yw4Z1dPe5UwmduRB2uipcOIdO5BJR8/gJRjTH9Luc6jpcnqOPIHn37n7dfATNG/s/z59Y9j6ypmrjjugxl213nTlkjL0eDyXalst9NzwPbPBnXdvOXwx2zsJjKHj2ZzS+P3METKgyQpw6rb97Jl/p98SojZEdIyA6FTq4ESM76fX8849H+fHJfdRYOdh/sMaRucIkqCPCMyk7H4gKiUCgEDyTpWjD2LcrVqyom3QQmgDCJggY5E5b8KIheBghCihPuUhyx+zC1n0+bDDkjrYOuaPlY9JhwpayjBwwzXDNMLkjEDiBzdg8BE0fDZ9Oh9FBOF9Wk8dN7t8FVh3jC891N29e58h96gOLmNDGcHcLAlIFGwkHWv5O9/vcpvZhnx9XQ7RQ4qKQP9Bc56snzM2bu9I6jqDTYMhOJwDJosF58xDpEF1gTtqawczihfLkJZIi9e/cNU9JMGhL2MyCn/0u1RIDE1TQMbDpMZ0JZhI8SG7eiiwXtAWPIEYemFjYqQlTBWSOtu7zUC/HgZ95cHzWESl29H37l7jf8w4lYToEJpwvXNjlRi94L21x2vtwta1TP+QBmXMdRjEBUQamJp43zxBzDhEo+Q78M6BN+9yzQlsnH20JewzxzPlO/HPU78rdF23gujxrnjORJ6krqDt4FvzPd89vgDp4FpTjWXPs28f/tDe4ZhBsDjMd56iL9jB5vm/fkjSTXmD6wuTEqCKY10j/zcWjPDlyd0T+MHKHJPF3nj59upIFjcF0gqYMoWJCIeQvxE2MGBa3LF682GkFBdTWTh0QNFo/NnS0fEgXV0o0d+oGEyZMUG0dkw4x4dH8sfFj6sGejgmnTJkyGcwyvn2Yblq0aOG0lz9qADOuzwjC58mK8qTJPYzMwg8EL2Jgbw6OIRVvfw5s3dHyBvmwm3PsP4O86fnSJWM6+ZHMX/ggr8/nyzyYP2gHdnnf/qAcxEXHQMcSWcZL+jXS6w+E4/TOIHz8YJnDSrp4jbD7UhA0jPYcVdLHBz8YOYTvJygf1Ofrp4yfo/DP0Z/z1/Kf4bb5Nofvi+Nwfj65Pp/f9X36doRHU8E10o8pE3mesl6oj83TN+mogP993ngV7ufHN8u07SSnNmyUc/v2y7m9++T4/IWSXKpcBnJHU8fM4kPz1q1bVycwIe9hw4ap9wpkz3Z7kG/Lli3dMHqyatlMxFIH2jV5/IQq5Ix3DF4yPrIknQd1ovVDTHQYRYsWVVMM+7FC7rhbRpI7gtZI+X/5l38Roktyv9QRzpPV5GmS+48VOCxMKvEmnmSinTP54eI7hmjnvET7DtI7A9+5fL/fY2Qn80PkxyV39+Ifmz5LUqrU0KiQe5q3lj3NWsmuWvVlV50GGSZUMcdghkF7ZhIV0wefuCXSMIgW2yuLnNDUMcWwqGnVqlWq1fs6vEbPwhrawobY+LyjdUNE5OU8k7TkZyKWyVb2ZiVePDs9dezYUTuTMLlTF+SOWYcOgDbQmYTvNyvKs0ju8SxPktijkZhPj0x7VgTzDGawaOe8PHj/qWoeCtZSHNH/MdVlzPPdQr2YpMJzMD9EflRyx8f9/NFjcnrTJjm1eo2cWuNINk3O7kgJ3CFD+SkL4aonhavL2+B9nf68F38cvqZP88TMZyRJ+/MQOLZ3/NuJFc9oIU+ePDrBSj5fL/lx65s9e7Zq/djlGQlkda0diUdy58UINKmwpL8swfkHtasgPTJfcBz8nzFvtHzBMdd7uAboy/j2Rc8TvZ709AfLhesMJL39D+bz/z9YX3A+Wpn0tPRy4bTI6yMZ60nPFy4XpMV6LrNrBOcefDYPlgvXT/ohIYzF+Am9ZHsyrqSYcTJ7vpHP6qh6ZjEJjHspm5ngJhvU8fB2eeH6TAozCUw4B+YhMssbq3C9H4/cEUgSAn5AMpo8vHhSDZNrZnminYtVKE/ngSkIsw22fTYHgcAj7wMCw8++Xbt2arKJJP+sLPFG7ukvkbe1suAo3d4a/H9UJxODY/zBfVnKBGQV/B94QwSTbBCCXwjF/8GLG+T3/yO8RGhgTFZS94N7gwblOXc07ZhyQd1BaAWO8ZsncBWTheT1Q37yHUybHOTa4b1XOe/vO2h/ejk+/X0GzyBoB3LovrYYpPMZ3Fd63enHwfnwfRJOwV/HPw//3El/0MwQ5AvKBMfB8wjaE3ku/LyD9j54DZ9+LG0inWN/Lwh5aWcwoRockwfh/yAfK1OnTMFDirLUHbbDc3ws7TsJ139Yf0+s/sXzh0nvC2kLsILzQbiJ4BnTxgddKHGBZcP0P7z4W3nzrZfTFkydeiDfowht/3HJPc6F9nrtHokcCUTm4zwSeT6rSjyROwLpzZ49WBfH4MeM4N2BHzTeJmyQjXtg23a1Nf4KLm7BS3fQ/T8+baEK29xtVHc4PGCu39whS5eN0QVAvLD4suOjztCbGCy4LOJjjtcFe5TitoivOfuqnj/PS56ugfFi4z+Oi+U0Vz+hC7r3aCrbtgcBvhjikx8/bSJHduhQV/3KL10KtgXEb7//gDbSpk1t3bOUgGgBGR7U+8P/GnJBe+T+2IaPNnKfB3VyNFXd+QgEhscHHi3EeMF9kOeExskG2rhUMnHqSZA2L1g4Qv3muRbbEBKLpq27z3Hju2sZgnuNn9BDwwPw3Ilz07VrI3W1xBuJ5+NJB00XAgv89Q+773Gy7tvK+gHcS9dvmJymvR7VSV1CATCRvNOVw3+e1b56Dfc98xyo79q1HbpuoZ37bnu58/i280y5f1wp8evv3KWBujzyXbIBOPe2ZOlYja8zanQXeffdVzQuUV/3/PiOApLmOznolMGtGvCsdZua6n4ZBEo7rH73LOwKJpmPye7dC/ReeM7cM/czYGBrXTFLjJogjEH4N+E68TsHdX1DvgJf6LqM5i2ru07o2P1n9n2ENj8WcsdW7iM4hsky3sWTNd4wSGbtD+fLLE9WFBaX4aYaH+QeuOYNG9ZJV3hme/91efnl56VMmXxKOFeuJAurFVmZyKKesmUL6sbPkAwxT1iQg980BAM5l3EvGaRx4+ZuV2cHKVkij77QQeCxT3XBDC975SrF1OcaYscnGj90/OlZ+MKm1oGW7bXmU7LaEffP/un/6MKeWjXL6MrYihWLpK2IPKntwT8bX3sWSeF3T5gAyI4oio0aVVY3Ra5F+APcENGkD7tPAnF9+NGbUq9uZfnXf/2p1G9QQXbtXqixWCA+ng+rTH/yk/+hJgjulZABrCzFj5zVo+QnFAFxZG7cgAAPamfAqk08RZCSJfPqfTZrVk193Fk7sCNlnutQmrl255Pnn/+lfPrZu7oSmNgswWIhT+7H1F+fwGKEHSDa5QcfvCm/+vXPNTYM3xXfUbC464L6vb/+xp+ULNevnyYtWtTS9QiEl+AZcz88f8IW5P7qE/Wd537LlS+obprseUveDz54Q2rWKq3hFfBhx62RNREFCn4hpUrlE1az/tu//Ux929nYm7oIanbv3n73HHap//9nn7+noSEITkYsHVxn584dqmsW+G3cvp3qtPeC8n/+z99qTCNWFbMyGZ9+nikL4WhroNGnPw++++LFc6tZh8BqhLsIQjIEo7vvI4+F3LE/40WCayG2afzFTbKGMFrDjTS+zDKnnByW0W6YzAt5QzVz0g7pZNkRR2jERCFwVbESuVXLvXl7p3u5y6qguRV0L2tAtsHQ/86d/ZqPVZi83EQt5EWlA2B1Ky9ovXrllNiSd8yW446YBg5up4tu0P550YK2nVSt8Xe/+6WuhmXLeEgBIoUMbjsNDuIo7cgGUjrsNGU6HM4zYmCUsd9p3Ftc+8eO66GdAORJHBhWhtavX05XUIrc1FWt9RuUV1IkqiOxatBgIbIXXvi1+ssHZoLD6nfes1dTzYcGTjyevO4ely0f67TuPbq6laiXjA7oWCAstPyTTqMfNryjfPTxmxr0S+SSjgYItzBj1iB3TMydExGkc8xp3x2knmsro4fOTpNmxSyLuwjxwOphVr8yeiCcLyOK911Hvf8AZIe56rKGGWjgOq4tWxldXNDfwMcfv60aOCtbCb3Mdzh+fE8dVbHauJ37LdA+7o/vbgAjIKct13KdAeYlOmEWXhF7iGfCqIN4NMRBIvYQHQTfEX7vjNZYCZs0qbfMnT9MvzPWCRAVlHsh/AWL5xjFVa1aQjtRVkTz/Xv//UD4TRzReulc+W7pPGn7OPf9hs1ujyqPhdz379+vy8/xbMHzBD90k2df+K7xPCLuTnxNqAZxwwcNbKsaNAtpAs3+mCxbNk7Jm/gymD2+dho4LyALXyD211570b2Yb+gyfr9CkvrQ7HkBGbYT6OqXv/xX9/myarMQDJopmhdaIEN/CIv4KASlCofq5eUmZO7777/m2j7JHZ9R7Q8yHOBI7fyFjboSlJcbkwMrYRs2rKCd1J69C10bejptvqJ07dZYWrepLblyfawhEkTOaWcEaRHXHCJBiycqIuSONtvFkVX9BuWUWFm9iobIvR1zZNepUwMp5DouYvGcds/r+vU9UrFSEb2H9Rum6H1iesC2TOhjVp3yDCF8TDoQJAugICPMKHQS4yf2TPs+MpoWPLkzKoFIITWIsGixXLpimDC9XzjtuaHrRHu5DqdgwRzuub+a5nMf2L3Jh8aOKY00ns0f//QfOhro2bOZPi/CCRDDBvPSp5++q7Hoef6EUujkvnvaXb58YR2lBd/PQcnnRgK0hfsYPryT1K5TVhdbYYb76U//QUMAY+5q3aqmRrtctHi06zAHaQAyfh+EXejRvYn7HkrrBGvdemVd/iZpJibfwYd/q0fk8uWtei8fffSWjgQxO338yVv6TIlUGigYwbxC+Dl+l3C9x6K54yKIj7lJ1hLcUZlgjn9yDybbGEqzacbRoxvUHk3AKOzGLDuHAHPl/EhJoKbrACAJtDleLnb7x/wyZkxXNUX85rf/Jj2cRknc746OgNFaq9csqUG2iAWzffs82bp1pi46QttN90zB7JIkf/rT8zrkR5NkxSvtGjWqi7uX3YHZwNWzdu1kV89cnQdAw8XEANFBfqdObdROgtC9ffpA7mfV3o69dt78Ee74goaxhdwhXTR/NMpWjpSwAWMmQOvkuaFJ7t27REaM6CzVnJaJ/ZvOghEAbcH806hhRbUp41ECYRV3ZA/h0b5tbhRBncF9HtW2fhe5D3PESYwZQukOdURPmSJFc6pZhpgumHwgzQ0b5ipR0xmSJzNyP3FyjbzjOt7mzarrqIxYPzy3C5e2yC73Hbz11kvuufGczuv8Abtg9ejRVO+rXr3yrtPaq26ImMqGO4KlTuzj5GPhFs+EDh1PFurmGoQ6YLEXq3aJt//Fl9mkSZMqboSxWH9LjMyIb4Np7NQpfoOMHo/eX40beAHx25qq4REwzaEYEFqBsA4FCnyhcxt376WqosFv2pcLP8/M5LGQu7e5M8GGDZZJNpNnX4gBw6pgVv/GG7nz0vV1mi9Dd17OgNyPSpOmVd3Q+32ZPHmQTrq9996r0qJlDX1xsA9DfmjhKxxxor1jA009uFQaO225Tdta7kU7JDNmDNQXGVJmgq9a9ZKqtUFmaLVM9s2cOURt2kwmhkMMQO4QxW9+/Qu1+Y8Z21MJhBd7k+tsMDugnUMWTEhSD8NzOgQ0fMqg8U6bNlCJ49VXX1TN8EDqciVytHp2mqLTgMAxp2AWIvTta6/9UTsAJmeJkcNEKNow15s1a4hOMpcuky/NJnxCl+6XLptfg5ixOQnPj+fITk+ETO7hOj/ivBMsjMlKzDcQL51QpUqFZdTYrmn3/CC5Q3y//NW/6nwCZhwCpOXK9aHG32HEwvMOJiivu7YNktdf/1OaeSsgdwKPoSUz0c33fffefjWxVKnsOuCx3WTq1P4alA1y2+/a8+c//14DsY0d010nNjGfrVo1UcMX01ExEqJNL774W+1YcEnEfMVcC6MVJnOrVS+hGjmblDDZilmLePl05r/5zS/cb+k12eaI//LV7foc0cIxLdGxtmxZXcaO7aFzJzyfQIM/5H67O9XshLmPEQYdz4kT65XUGQnyLLDbs0HMunXEr6dcxueZmTw2ck9UbxmTHyaQfPz5uQd7ba5Zk6RaOItKSENLQsMkFGzzFlXVxszkHS8n+SFy/kezok6Ia87cYWpLhWD5ZLjObkNsAXf23AbNiwYLiZ90I4TZs4coyWCXZkSADTYg96B9XnMnPjgBtCBUXnzaiWmIF56OCa2+let0GP536FBXTSLEiMGzg3IQO53TEKdJYmoiVg1ktnnLTG0T5Dx2XDe9PuTZ12n7aMt4p9y5s8dp6Z0ED529+5a4kUcD7biw7c9yJB0E4cKEcEFt+O+8Q7x1ojYG3hto6MS+b9+hjrvP6noPeBYFLoKH9XpTHLlu3jrj/ncSFu4RbbWZG1Xh/sezgTwJxoV5hR2xmKQMFgUdUxs0O2RRb9CuQ0r0XCPQ5gOTCp0aAcEwt7CLE940bHhCHHpMHk2aVtZ7bNa86n3vKZ65BlZz3wGbfvC9MLGOuYnjwBRE/YGXETtF8d2Sny34UBx4NowQmcOhbSgKjIrw1uF/omliwuI3R71BmwNypw10jCgMwaQzHehRfZbMj8ybP0x/s3RYTABHe56ZScKS++O6Trx3Rj+kfU/i3uKR3L3wgqB14TsepAVaD257uPShmRJ8ipcKcwMk7FcnMvQlHbMM6cGkLBrTAbnr0pnY9EGmyOf9xO85YkXjhGh48SEPv8drUO9JJeP3s72uJI/LJYGtAmL02r3TRF2d7NuJ29wpd/7GzRQ9h0shIYjR4q9cdUSddo+6svFmEAjLt5M0ztFO2se9+Wtw33QCt9x5zFa0l4lCiJ9nyX2vWj1NvnQjFGzS9+4FLpFB/cHWgAQEw1MHAuU+Ocd1uR7PjOcSpD0otDt4NsEzDMoEbaINvt1BXvd8XXv8MaJtd9fg06fRLjThEyfX6vMJYvAEHXr27O9oB8o9cj7ocAP7N/9j9kBy5vxISZudtrwZJKg7yEuaD/nM74jrI9wLn+RJv//gWZLufxNcg3RfL3n9d+PTvATfa/Cb5PsPl4tF4orcKRt2N/Quh5F1ckyex0Fe/jrRzoWFaz2O68Uq3Ld/Fkj4OcTSFvI/rmf0sLrimdxJi0wPXlJMNMFEaSDppBXO74+DMsFkWHod4WOfz//v6w+u4esL8h5XW3+ZsgXvjwSCfJHtjKwn3Eaflt7+yDYFeSPPhRfkBHkDyXgd2oSJqFixXGrWOuqIEm3Slw3KR7YvXDd1BtcNlwlLenl/X+E2cS78Pfj2h+/twWuk5wu365hGkWQfV0wd3rSUsX7qYYHWPrXjz5031B2nL8x6eP2kIdHqDMoG/2cs4/Oln08vG5meft2M5b5LKBMX5E45gnWxKQarRhFc7HCvZCWprxeiwZ+enZiYzAuT3qMIZXDbJEaN31aPuvy5yDqJa0M7wmk/lnBtYuEQYpgYNnilMGntr+9jnEe7b9LoFIhVT1A0Vtb6+wrnCR+H0yPPQep8t0i0YGrxTO7xKYH2h2aJdoymGz3f05SDOqrBRTOwe8f3phQPlyCEMpp2oIk//HkzMY7pKj6/l0eTJ0bupF+JQh5eiArJ7kbEbn/xxRc1tO8HH3wgX331lRIHxOI1WfZDJXokE3mQS5jg9TohAuI42jXJQ6AyQgITQZKNOryGHBauyYNhc27iz/A/+SLri5TIdvg035aHtYsNQIhfQ8x4YtmwlWCJEiU0aBq+5YMGDdJImZ5s/bW8MNHJXrBsHUhnGe2+kPD1MzvP88XdMXfu3O5HslwnzMPljNwfXQJtLN3MEX8SLFwKtNcHwyckmgSab2zPO8j3YLiERJQnQu6kXb4UIhI9zpiHCItEb3zzzTc1nC4aJ2TClneE8MXtjg4AjZZ47ESNRHs9dIh9OXfqtT0Rk5dPzkOGkGD4Wl5I55p0KkSJ5D4gKjRmRg7UDVEyQiC0MB0K90k+NP1o9+olNTVViZX/yYfWTQRKynJd2sXIIVwH/3MPdDjEpMd/nCiW3A8Ei/ZOnYQ9JhbO/PnzdRMS2k4UTNpJKGOeB8dEzOQ5UDcdIXnZzIRY9uSlQ/PXJB9lOcc1yE/nx3mEuPeEWabt4c7taZP7uvXT1R4ZkJEfIpuYmDDiYk7nRyN3jg+dPiazdqySQWtnyJhN8yX5yD4l9zDBQ+7sjEQ4XcgN0CB2O2JrPUgYtztMFGj2EBHEy2Ia9kmFlCAewgTXrl1bOwfahfkGso7UttFMMfkQ750FWMSGpxz7sbJzEzs8sZUeOzJBrGyp98YbbyjJYyqJ3KnJiydDdndikxFInnYSipi29ezZU9vF6AOTEMTqnxmf1Mlm34xc6Nw4T3mvMVMvGv3bb7+t7aTdxLMnxj3x6NkmkDUHpLNfLERPR8Qz4hxB0ugwq1atqs+Q50In06tXLx0lkE491I32TwfJd9O9e3cdRdFp0B5/v0+T3FNStsqq1VPVu+POnX068WRiYhII2xOeOLHWceOsx0/uVy5fkcOO2HuunCB5xtSVT4dXkC9HVZeas3rL1sN7MmjwEMjGjRvl3Xfflffee0/YiBqigVT5HyKG3Nu3b69aLaRFGYiFaI4QIvuuErKXEL6QDvU1adJESQpCytA2R6IQL5teUyek+9Zbb2lnAqlC+hDookWLVIuF1DGNQKSeMMP1hcVfm/ownzDioHNC2+7Ro4dqxOzoxDXI6+vhE7KF9Lnv/PnzS6NGjWTgwIGqvUP0mGy85k4ES0YX3O+vfvUr3VGKTo4Vw3QkdIpo6nwvmHboFCB9yJ/tCtmCkDr57rjXTp06qa2ezvXVV1/V9kHudCw8BzYj5zP8LJ8mue/enSLTZ4yW5SumOMVglnvGM01MTNJk/fpZsnDhRKcQTlVlNIwfTO43rl6T2U5jh9gLTagq9ec2dsTe0B3XklaLRsqFixeV4MkbJvePP/5YNUWILW/evKptojFC7pA4GiYE5rVZyBib8O9//3vVUNGSIUl6K0gx2qRimNwJ5Qu5Q6Zo6VyHchAsJIkpqGnTptoOTCuRo4BIgTAZRdB+zBmUx2YP2VI/14akIcXw80I4xmTDojA6AExBbOjNblGYWSBz4s5zn+QD7BdLh8jEMBuK0JkwYsGcBbnTFjo9ymEeQlPnfghfTNsYodAR0emwbSAjHZ473wGdGGSOqYY8kaONp0nuly5ddB3vDklO3urasM3ExCRCtm/f6viPwGc3096aAD+Y3G9evS6D186SHKPcUH92A2m7pLW0WdxSqsxoLPnGtpAz58/J1TTShdzZ/xSzDNo2hEJ97HkKMUGOEAkEC/FgiyYPgmbNDkp/93d/p0TntWFIlA4gGhl7cmdLPzT33r17C9v6YRqC3CEsroOm7cmdCUrIlfp9HdTPZ7hurk0eOh32WsVrBaLH3OE7HsrR9nA5L5RFIGFGCTwDOjzaQOfCM+B/zgPumWdE50jbqRty95o75I6mjmZOWzmmQ8P0wogIUxQbhUPafMfUg0mJDg+7PO3Ec4n5EEZB8ULuHvwswz9UExMTL2kvSQQi8z3Hn2jIXHO/LpO2LpEvR1aXMpNrOnJvJS0WtpSiE+tL9Rm95Zwb8l+9nE7u3uaOuQCQxvZ3TKBicoEUsQ2jpUIoaKkQLwSMlw1kBslBRJRlKILWjgYfbhcSjdzR4mkDZZlw9OROPWjK2OQhQ67rSZJ7j5wYRSA9rot2/Nprr2nbRo8erUSJ9ky76CgiyyFMkHJfXAdwDe4PMqbNaOAQMlo1gNw5DymjtT+M3Lke98MzZuKaczxTNv2mPGAi109acw3qwwSEWYbRQ7hTigdyNxgMj4YfTO5XrlyW1FNHpeG8gfLR0Iry1ZgKkmdMDck1qrEs27M5g2skGifEiq0X2zBuh5Bujhw51LSB9wokgzvgb37zGzVBQCxotTlz5lTtGA0eQsMcAeGSF/Jmb1QIKWPbrijBoqFiY8YEwf+UoS2YIZjU9NouWixkj8ZLW6gLouN6TOrSNl+3r5/2oen+5Cc/0XvgOUG+kD7Ein0/3C4+EToytHxcNLHxM2JAa+aYZ9ylSxftxLCJ05HRNp4TIx86JtqCOQnC55lC4EyGQujUD7lj8sFuz3Nin1nOY5aio+A5/OlPf1LSx+ZOJ4PphueKx46Ru8GQ2PjB5I5cu3xVJ1W7r5gkece2korTesjq/dvUHBPOC2FQD5OjaO/4uH/22WeqLePVoXU5zZ0y2NebN2+uWizmGsgObRdig3iZ/MQkAkFDoBAkJBS+Hv9DsmjsdBAzZszQ/zGD0BZs+hA5E5AQMum4AjInADFCemjitBU7Otf2dfv6fYdFGYiVerkHbOXUwajA35MvQ6dAbHy8dfDOef311/U5MKkKSZOf+QdGEkyCUi9txzMGV0d/DTocOiY6PEwrnGcilWvwPY0fP147EdrC/dGp4UVDZ8VoA00fjx7aRXkmZOlEGHXQRn+fRu4GQ+LhsZA7gtfMrWs35O71W3Ln+k25diX6cn9IA5JkUg9BY+QYsvJ5sPdCXHiMeNMM5OQJh7yQKvlI4xwE5MuHhbai5XIe4X9fT7gshEZ9HNMu8nENyA7tmU4i3EbqpQxki/aLVg15+jycp65Ibd8L1+Q8zxMbPdcmr3+2HPvn5NtPft92hGuF0/iffP48nQBlqYtOA19/BM0ccwyeQQsWLNA8uF9yzCRwZJup08jdYEgsPDZy9xLp2x5NKB8pkef5RLtlUjVMaJF5fgzxdUOe2KjR8CHIcB6OMXdgykAThiwh+0dpF3m5N+rKrNzjuE/fVlw20djxRqLjZBUsWj2dAKMhXCTR4COft5G7wZB4eOzkHot4QuMzGnEjXIO2QLDk4fNxEN2jCsQWSewIbcKu7c09aN+Z3cvTFp4bHQ9aOYu5MDXhCkn7fZu5T0g+2jM2cjcYEg9hYkee4080PE5yh2iwZyMQJ+YHCCSch3SuiTkEwT3wYYuKnobQFtqOROsA4k14xpiaEEwvsXZGRu4GQ+LhiZI72jeTorjw4eaHLze+4ZgLsANTLwLpYMtmchNSYdIUzxBMJPGqHT/LYuRuMCQenii5o+Hi1sdiHQQ3yBo1aqiXBkQO8UMkmAdY5IRHDCsqsXnjKsjkJr7hRvBPVozcDYbEw2MjdxYq4SUjN+/Itzduy/WrD64YhdyJv4LbIO6LALLGZRB/bdwhyQOZEzgMMsF8gDkG32xC5BIywMj9yYqRu8GQeHgs5H7NkS0LmbqvSJKC49tI5em9ZOW+reoeGc4LcfsVqgQKA2jm+L0TVwWzC26PkMjLL7+sWj72YerAVY94M7QBcv++oweTRxcjd4Mh8fCDyR2Nfd+Jw9JIV6hWkM9GlJYvRlaSr8c0k8V7NsmVS+mujpA7BM7CnF//+te6opOFTByzuAhfbPJgkiGODNfEdxtbPUvsWT3JQp94m1h91sXI3WBIPPxgcidwWNLWJfLFiOpSenJNabektbRc2FIKTagrVWf0eiC2DCRN3BjMMEQfxNxCvBeW6vuYL9jhWT2JecavxoRcihUrpv7kdAJG7k9OjNwNhsTDYyH3wesio0K2ksrTG6VHhQyRuzfLsOwfsAKT0LeE3vUx2sOau19hiYmGxULk8bsL+TaY/Lhi5G4wJB5+MLlfv3JN5u1cK1+PrS8Fx1eV+vOaSI1ZDeWr0TWl7eLRD8Rz93FYiHoISaOds3yfzTl8yF+CgBFlMWxzZ7s5zDJEM+TYyP3JiZG7wZB4+MHkzv/HzpyUgWunKsG/P6ScfDaiqjSYO0C2H9l3n9gRyB3Cxs7+0ksvaTRH4pkQJIwgWYTgxQxDAC8iFrLVHZo7i52IIEl+zDrmLfNkxcjdYEg8/GByR5g0PeoIfvHuDTJ+80KZtn2F7DqW+kCMGcwrLNMnbjhaOiF8IQzMMkQ2ZOWq94QhUiRb8JGfyJAsdurcubPGQjGt/cmKkbvBkHh4LOSOBHul+vTLEccZxZeHzH2wrbB7I/8T8pYgV/i1E8Oc0LY+LLCR+5MVI3eDIfHw2MgdgczDm3NkJp7MvUTLTxpaO3Z5rsliJ8wzkflMfnwxcjcYEg+PTO5P0lMFMw7X8p3Bk7quSUZhHoSRFNEkDQZDYuCRyJ3QtmjR+J1DvCZZQ/i+mQgnvLHBYEgMxEzuTGTOnTtXh+ds/MCxSdYQInQS/oHv3mAwJAZiJndivuDRAsEvXbrUJAsJW/GhuRsMhsRBzOQO8FM/dOiQkjzanMmzL3zXhGJ+2O/CYDDEH8LEjjyU3A0Gg8GQGDByNxgMhmcQRu4Gg8HwDCIquZuYmJiYPFti5G5iYmLyDIqRu4mJickzKEbuJiYmJs+gGLmbmJiYPINi5G5iYmLyDIqRu4mJickzKEbuJiYmJs+gGLmbmJiYPHPyrfz/bPDjoJJmD9wAAAAASUVORK5CYII=;" vertex="1" parent="1">
          <mxGeometry x="1836.9969747121713" y="-212.4986179070723" width="375" height="425" as="geometry" />
        </mxCell>
        <mxCell id="phAX-SJPCVNB1UN9vK63-7" value="(I) A" style="swimlane;fontStyle=0;childLayout=stackLayout;horizontal=1;startSize=26;horizontalStack=0;resizeParent=1;resizeParentMax=0;resizeLast=0;collapsible=1;marginBottom=0;fillColor=#CCFFCC;strokeColor=#6c8ebf;fontSize=20;" vertex="1" parent="1">
          <mxGeometry x="2338" y="-180" width="82" height="106" as="geometry">
            <mxRectangle x="230" y="140" width="160" height="26" as="alternateBounds" />
          </mxGeometry>
        </mxCell>
        <mxCell id="phAX-SJPCVNB1UN9vK63-8" value="void f()&#xa;void g()&#xa;void h()" style="text;strokeColor=none;fillColor=none;align=left;verticalAlign=top;spacingLeft=4;spacingRight=4;overflow=hidden;rotatable=0;points=[[0,0.5],[1,0.5]];portConstraint=eastwest;fontSize=20;" vertex="1" parent="phAX-SJPCVNB1UN9vK63-7">
          <mxGeometry y="26" width="82" height="80" as="geometry" />
        </mxCell>
        <mxCell id="phAX-SJPCVNB1UN9vK63-9" value="(C) C" style="swimlane;fontStyle=0;childLayout=stackLayout;horizontal=1;startSize=26;horizontalStack=0;resizeParent=1;resizeParentMax=0;resizeLast=0;collapsible=1;marginBottom=0;fillColor=#99CCFF;strokeColor=#6c8ebf;fontSize=20;" vertex="1" parent="1">
          <mxGeometry x="2338" y="-30" width="82" height="110" as="geometry">
            <mxRectangle x="230" y="140" width="160" height="26" as="alternateBounds" />
          </mxGeometry>
        </mxCell>
        <mxCell id="phAX-SJPCVNB1UN9vK63-10" value="void f()&#xa;void g()&#xa;void h()" style="text;strokeColor=none;fillColor=none;align=left;verticalAlign=top;spacingLeft=4;spacingRight=4;overflow=hidden;rotatable=0;points=[[0,0.5],[1,0.5]];portConstraint=eastwest;fontSize=20;" vertex="1" parent="phAX-SJPCVNB1UN9vK63-9">
          <mxGeometry y="26" width="82" height="84" as="geometry" />
        </mxCell>
        <mxCell id="phAX-SJPCVNB1UN9vK63-11" value="(C) B" style="swimlane;fontStyle=0;childLayout=stackLayout;horizontal=1;startSize=26;horizontalStack=0;resizeParent=1;resizeParentMax=0;resizeLast=0;collapsible=1;marginBottom=0;fillColor=#99CCFF;strokeColor=#6c8ebf;fontSize=20;" vertex="1" parent="1">
          <mxGeometry x="2341" y="120" width="82" height="111" as="geometry">
            <mxRectangle x="230" y="140" width="160" height="26" as="alternateBounds" />
          </mxGeometry>
        </mxCell>
        <mxCell id="phAX-SJPCVNB1UN9vK63-12" value="void f()&#xa;void g()&#xa;void h()" style="text;strokeColor=none;fillColor=none;align=left;verticalAlign=top;spacingLeft=4;spacingRight=4;overflow=hidden;rotatable=0;points=[[0,0.5],[1,0.5]];portConstraint=eastwest;fontSize=20;" vertex="1" parent="phAX-SJPCVNB1UN9vK63-11">
          <mxGeometry y="26" width="82" height="85" as="geometry" />
        </mxCell>
        <mxCell id="phAX-SJPCVNB1UN9vK63-13" style="edgeStyle=orthogonalEdgeStyle;rounded=0;orthogonalLoop=1;jettySize=auto;html=1;entryX=0.5;entryY=1.012;entryDx=0;entryDy=0;entryPerimeter=0;dashed=1;dashPattern=8 8;endSize=15;" edge="1" parent="1" source="phAX-SJPCVNB1UN9vK63-9" target="phAX-SJPCVNB1UN9vK63-8">
          <mxGeometry relative="1" as="geometry" />
        </mxCell>
        <mxCell id="phAX-SJPCVNB1UN9vK63-14" style="edgeStyle=orthogonalEdgeStyle;rounded=0;orthogonalLoop=1;jettySize=auto;html=1;entryX=0.536;entryY=0.989;entryDx=0;entryDy=0;entryPerimeter=0;endArrow=block;endFill=0;endSize=15;" edge="1" parent="1" source="phAX-SJPCVNB1UN9vK63-11" target="phAX-SJPCVNB1UN9vK63-10">
          <mxGeometry relative="1" as="geometry" />
        </mxCell>
        <mxCell id="phAX-SJPCVNB1UN9vK63-16" value="(I) Flyable" style="swimlane;fontStyle=0;childLayout=stackLayout;horizontal=1;startSize=26;horizontalStack=0;resizeParent=1;resizeParentMax=0;resizeLast=0;collapsible=1;marginBottom=0;fillColor=#CCFFCC;strokeColor=#6c8ebf;fontSize=20;" vertex="1" parent="1">
          <mxGeometry x="2641.25" y="-170.5" width="130.5" height="61" as="geometry">
            <mxRectangle x="2661.5" y="-170.5" width="160" height="26" as="alternateBounds" />
          </mxGeometry>
        </mxCell>
        <mxCell id="phAX-SJPCVNB1UN9vK63-17" value="void fly()" style="text;strokeColor=none;fillColor=none;align=left;verticalAlign=top;spacingLeft=4;spacingRight=4;overflow=hidden;rotatable=0;points=[[0,0.5],[1,0.5]];portConstraint=eastwest;fontSize=20;" vertex="1" parent="phAX-SJPCVNB1UN9vK63-16">
          <mxGeometry y="26" width="130.5" height="35" as="geometry" />
        </mxCell>
        <mxCell id="phAX-SJPCVNB1UN9vK63-18" value="(A) Bird" style="swimlane;fontStyle=0;childLayout=stackLayout;horizontal=1;startSize=26;horizontalStack=0;resizeParent=1;resizeParentMax=0;resizeLast=0;collapsible=1;marginBottom=0;fillColor=#dae8fc;strokeColor=#6c8ebf;fontSize=20;" vertex="1" parent="1">
          <mxGeometry x="2581" y="-32" width="251" height="110" as="geometry">
            <mxRectangle x="230" y="140" width="160" height="26" as="alternateBounds" />
          </mxGeometry>
        </mxCell>
        <mxCell id="phAX-SJPCVNB1UN9vK63-19" value="void eat()&#xa;abstract void makeSound() &#xa;void h()" style="text;strokeColor=none;fillColor=none;align=left;verticalAlign=top;spacingLeft=4;spacingRight=4;overflow=hidden;rotatable=0;points=[[0,0.5],[1,0.5]];portConstraint=eastwest;fontSize=20;" vertex="1" parent="phAX-SJPCVNB1UN9vK63-18">
          <mxGeometry y="26" width="251" height="84" as="geometry" />
        </mxCell>
        <mxCell id="phAX-SJPCVNB1UN9vK63-22" style="edgeStyle=orthogonalEdgeStyle;rounded=0;orthogonalLoop=1;jettySize=auto;html=1;entryX=0.5;entryY=1.012;entryDx=0;entryDy=0;entryPerimeter=0;dashed=1;dashPattern=8 8;endSize=15;" edge="1" parent="1" source="phAX-SJPCVNB1UN9vK63-18" target="phAX-SJPCVNB1UN9vK63-17">
          <mxGeometry relative="1" as="geometry" />
        </mxCell>
        <mxCell id="phAX-SJPCVNB1UN9vK63-24" value="(C) Eagle" style="swimlane;fontStyle=0;childLayout=stackLayout;horizontal=1;startSize=26;horizontalStack=0;resizeParent=1;resizeParentMax=0;resizeLast=0;collapsible=1;marginBottom=0;fillColor=#99CCFF;strokeColor=#6c8ebf;fontSize=20;" vertex="1" parent="1">
          <mxGeometry x="2577" y="120" width="251" height="84" as="geometry">
            <mxRectangle x="230" y="140" width="160" height="26" as="alternateBounds" />
          </mxGeometry>
        </mxCell>
        <mxCell id="phAX-SJPCVNB1UN9vK63-25" value="void fly()&#xa;void makeSound() " style="text;strokeColor=none;fillColor=none;align=left;verticalAlign=top;spacingLeft=4;spacingRight=4;overflow=hidden;rotatable=0;points=[[0,0.5],[1,0.5]];portConstraint=eastwest;fontSize=20;fontStyle=0" vertex="1" parent="phAX-SJPCVNB1UN9vK63-24">
          <mxGeometry y="26" width="251" height="58" as="geometry" />
        </mxCell>
        <mxCell id="phAX-SJPCVNB1UN9vK63-26" style="edgeStyle=orthogonalEdgeStyle;rounded=0;orthogonalLoop=1;jettySize=auto;html=1;entryX=0.484;entryY=0.988;entryDx=0;entryDy=0;entryPerimeter=0;endSize=20;endArrow=block;endFill=0;" edge="1" parent="1" source="phAX-SJPCVNB1UN9vK63-24" target="phAX-SJPCVNB1UN9vK63-19">
          <mxGeometry relative="1" as="geometry" />
        </mxCell>
        <mxCell id="phAX-SJPCVNB1UN9vK63-31" style="edgeStyle=orthogonalEdgeStyle;rounded=0;orthogonalLoop=1;jettySize=auto;html=1;entryX=0.502;entryY=1.043;entryDx=0;entryDy=0;dashed=1;dashPattern=12 12;endSize=15;entryPerimeter=0;" edge="1" parent="1" target="phAX-SJPCVNB1UN9vK63-48">
          <mxGeometry relative="1" as="geometry">
            <mxPoint x="3744" y="31.523809523809405" as="sourcePoint" />
            <mxPoint x="3618.500000000001" y="-100.57999999999993" as="targetPoint" />
          </mxGeometry>
        </mxCell>
        <mxCell id="phAX-SJPCVNB1UN9vK63-32" value="(C) Bird" style="swimlane;fontStyle=0;childLayout=stackLayout;horizontal=1;startSize=26;horizontalStack=0;resizeParent=1;resizeParentMax=0;resizeLast=0;collapsible=1;marginBottom=0;fillColor=#99CCFF;strokeColor=#6c8ebf;fontSize=20;" vertex="1" parent="1">
          <mxGeometry x="3560" width="180" height="84" as="geometry">
            <mxRectangle x="230" y="140" width="160" height="26" as="alternateBounds" />
          </mxGeometry>
        </mxCell>
        <mxCell id="phAX-SJPCVNB1UN9vK63-33" value="void fly()&#xa;void layingEggs() " style="text;strokeColor=none;fillColor=none;align=left;verticalAlign=top;spacingLeft=4;spacingRight=4;overflow=hidden;rotatable=0;points=[[0,0.5],[1,0.5]];portConstraint=eastwest;fontSize=20;fontStyle=0" vertex="1" parent="phAX-SJPCVNB1UN9vK63-32">
          <mxGeometry y="26" width="180" height="58" as="geometry" />
        </mxCell>
        <mxCell id="phAX-SJPCVNB1UN9vK63-34" style="rounded=0;orthogonalLoop=1;jettySize=auto;html=1;endSize=20;endArrow=block;endFill=0;entryX=0.75;entryY=1;entryDx=0;entryDy=0;" edge="1" parent="1" source="phAX-SJPCVNB1UN9vK63-32" target="phAX-SJPCVNB1UN9vK63-39">
          <mxGeometry relative="1" as="geometry">
            <mxPoint x="3400" y="-120" as="targetPoint" />
          </mxGeometry>
        </mxCell>
        <mxCell id="phAX-SJPCVNB1UN9vK63-35" value="(I) IHasEggs" style="swimlane;fontStyle=0;childLayout=stackLayout;horizontal=1;startSize=26;horizontalStack=0;resizeParent=1;resizeParentMax=0;resizeLast=0;collapsible=1;marginBottom=0;fillColor=#CCFFCC;strokeColor=#6c8ebf;fontSize=20;" vertex="1" parent="1">
          <mxGeometry x="3800" y="-119" width="156" height="62" as="geometry">
            <mxRectangle x="2661.5" y="-170.5" width="160" height="26" as="alternateBounds" />
          </mxGeometry>
        </mxCell>
        <mxCell id="phAX-SJPCVNB1UN9vK63-48" value="&lt;font style=&quot;font-size: 20px;&quot;&gt;void layingEggs()&lt;/font&gt;" style="text;html=1;align=center;verticalAlign=middle;resizable=0;points=[];autosize=1;strokeColor=none;fillColor=none;" vertex="1" parent="phAX-SJPCVNB1UN9vK63-35">
          <mxGeometry y="26" width="156" height="36" as="geometry" />
        </mxCell>
        <mxCell id="phAX-SJPCVNB1UN9vK63-36" value="(I) ICanFly" style="swimlane;fontStyle=0;childLayout=stackLayout;horizontal=1;startSize=26;horizontalStack=0;resizeParent=1;resizeParentMax=0;resizeLast=0;collapsible=1;marginBottom=0;fillColor=#CCFFCC;strokeColor=#6c8ebf;fontSize=20;" vertex="1" parent="1">
          <mxGeometry x="3800" y="80" width="129" height="74" as="geometry">
            <mxRectangle x="2661.5" y="-170.5" width="160" height="26" as="alternateBounds" />
          </mxGeometry>
        </mxCell>
        <mxCell id="phAX-SJPCVNB1UN9vK63-46" value="&lt;span style=&quot;font-size: 20px; text-wrap: nowrap;&quot;&gt;void fly()&lt;/span&gt;" style="text;whiteSpace=wrap;html=1;" vertex="1" parent="phAX-SJPCVNB1UN9vK63-36">
          <mxGeometry y="26" width="129" height="48" as="geometry" />
        </mxCell>
        <mxCell id="phAX-SJPCVNB1UN9vK63-39" value="(A) Animal" style="swimlane;fontStyle=0;childLayout=stackLayout;horizontal=1;startSize=26;horizontalStack=0;resizeParent=1;resizeParentMax=0;resizeLast=0;collapsible=1;marginBottom=0;fillColor=#dae8fc;strokeColor=#6c8ebf;fontSize=20;" vertex="1" parent="1">
          <mxGeometry x="3277" y="-174" width="251" height="55" as="geometry">
            <mxRectangle x="230" y="140" width="160" height="26" as="alternateBounds" />
          </mxGeometry>
        </mxCell>
        <mxCell id="phAX-SJPCVNB1UN9vK63-47" style="edgeStyle=orthogonalEdgeStyle;rounded=0;orthogonalLoop=1;jettySize=auto;html=1;entryX=0;entryY=0.25;entryDx=0;entryDy=0;dashed=1;dashPattern=12 12;endSize=15;" edge="1" parent="1" target="phAX-SJPCVNB1UN9vK63-46">
          <mxGeometry relative="1" as="geometry">
            <mxPoint x="3744" y="44.47619047619037" as="sourcePoint" />
          </mxGeometry>
        </mxCell>
        <mxCell id="phAX-SJPCVNB1UN9vK63-54" style="rounded=0;orthogonalLoop=1;jettySize=auto;html=1;entryX=0.5;entryY=1;entryDx=0;entryDy=0;endSize=20;endArrow=block;endFill=0;" edge="1" parent="1" source="phAX-SJPCVNB1UN9vK63-49" target="phAX-SJPCVNB1UN9vK63-39">
          <mxGeometry relative="1" as="geometry" />
        </mxCell>
        <mxCell id="phAX-SJPCVNB1UN9vK63-49" value="(C) Fish" style="swimlane;fontStyle=0;childLayout=stackLayout;horizontal=1;startSize=26;horizontalStack=0;resizeParent=1;resizeParentMax=0;resizeLast=0;collapsible=1;marginBottom=0;fillColor=#99CCFF;strokeColor=#6c8ebf;fontSize=20;" vertex="1" parent="1">
          <mxGeometry x="3360" width="162" height="84" as="geometry">
            <mxRectangle x="230" y="140" width="160" height="26" as="alternateBounds" />
          </mxGeometry>
        </mxCell>
        <mxCell id="phAX-SJPCVNB1UN9vK63-50" value="void fly()&#xa;void layingEggs() " style="text;strokeColor=none;fillColor=none;align=left;verticalAlign=top;spacingLeft=4;spacingRight=4;overflow=hidden;rotatable=0;points=[[0,0.5],[1,0.5]];portConstraint=eastwest;fontSize=20;fontStyle=0" vertex="1" parent="phAX-SJPCVNB1UN9vK63-49">
          <mxGeometry y="26" width="162" height="58" as="geometry" />
        </mxCell>
        <mxCell id="phAX-SJPCVNB1UN9vK63-53" style="rounded=0;orthogonalLoop=1;jettySize=auto;html=1;entryX=0.018;entryY=0.065;entryDx=0;entryDy=0;entryPerimeter=0;exitX=1;exitY=0;exitDx=0;exitDy=0;dashed=1;dashPattern=12 12;endSize=15;" edge="1" parent="1" source="phAX-SJPCVNB1UN9vK63-49" target="phAX-SJPCVNB1UN9vK63-48">
          <mxGeometry relative="1" as="geometry" />
        </mxCell>
        <mxCell id="phAX-SJPCVNB1UN9vK63-55" value="(C) Mammal" style="swimlane;fontStyle=0;childLayout=stackLayout;horizontal=1;startSize=26;horizontalStack=0;resizeParent=1;resizeParentMax=0;resizeLast=0;collapsible=1;marginBottom=0;fillColor=#99CCFF;strokeColor=#6c8ebf;fontSize=20;" vertex="1" parent="1">
          <mxGeometry x="3160" width="160" height="80" as="geometry">
            <mxRectangle x="230" y="140" width="160" height="26" as="alternateBounds" />
          </mxGeometry>
        </mxCell>
        <mxCell id="phAX-SJPCVNB1UN9vK63-57" style="rounded=0;orthogonalLoop=1;jettySize=auto;html=1;entryX=0.25;entryY=1;entryDx=0;entryDy=0;endSize=20;endArrow=block;endFill=0;exitX=0.5;exitY=0;exitDx=0;exitDy=0;" edge="1" parent="1" source="phAX-SJPCVNB1UN9vK63-55" target="phAX-SJPCVNB1UN9vK63-39">
          <mxGeometry relative="1" as="geometry">
            <mxPoint x="3441" y="10" as="sourcePoint" />
            <mxPoint x="3413" y="-109" as="targetPoint" />
          </mxGeometry>
        </mxCell>
        <mxCell id="phAX-SJPCVNB1UN9vK63-59" value="(C) Bat" style="swimlane;fontStyle=0;childLayout=stackLayout;horizontal=1;startSize=26;horizontalStack=0;resizeParent=1;resizeParentMax=0;resizeLast=0;collapsible=1;marginBottom=0;fillColor=#99CCFF;strokeColor=#6c8ebf;fontSize=20;" vertex="1" parent="1">
          <mxGeometry x="3160" y="120" width="157" height="84" as="geometry">
            <mxRectangle x="230" y="140" width="160" height="26" as="alternateBounds" />
          </mxGeometry>
        </mxCell>
        <mxCell id="phAX-SJPCVNB1UN9vK63-60" value="void fly()" style="text;strokeColor=none;fillColor=none;align=left;verticalAlign=top;spacingLeft=4;spacingRight=4;overflow=hidden;rotatable=0;points=[[0,0.5],[1,0.5]];portConstraint=eastwest;fontSize=20;fontStyle=0" vertex="1" parent="phAX-SJPCVNB1UN9vK63-59">
          <mxGeometry y="26" width="157" height="58" as="geometry" />
        </mxCell>
        <mxCell id="phAX-SJPCVNB1UN9vK63-61" style="rounded=0;orthogonalLoop=1;jettySize=auto;html=1;entryX=0;entryY=0.75;entryDx=0;entryDy=0;strokeWidth=1;endSize=20;dashed=1;dashPattern=12 12;" edge="1" parent="1" source="phAX-SJPCVNB1UN9vK63-60" target="phAX-SJPCVNB1UN9vK63-46">
          <mxGeometry relative="1" as="geometry" />
        </mxCell>
        <mxCell id="phAX-SJPCVNB1UN9vK63-62" style="rounded=0;orthogonalLoop=1;jettySize=auto;html=1;entryX=0.5;entryY=1;entryDx=0;entryDy=0;endSize=20;endArrow=block;endFill=0;exitX=0.5;exitY=0;exitDx=0;exitDy=0;" edge="1" parent="1" source="phAX-SJPCVNB1UN9vK63-59" target="phAX-SJPCVNB1UN9vK63-55">
          <mxGeometry relative="1" as="geometry">
            <mxPoint x="3250" y="10" as="sourcePoint" />
            <mxPoint x="3350" y="-109" as="targetPoint" />
          </mxGeometry>
        </mxCell>
      </root>
    </mxGraphModel>
  </diagram>
</mxfile>
